<?xml version="1.0" standalone="no"?>
<!DOCTYPE svg PUBLIC "-//W3C//DTD SVG 20010904//EN"
 "http://www.w3.org/TR/2001/REC-SVG-20010904/DTD/svg10.dtd">
<svg version="1.0" xmlns="http://www.w3.org/2000/svg"
 width="1280.000000pt" height="894.000000pt" viewBox="0 0 1280.000000 894.000000"
 preserveAspectRatio="xMidYMid meet">
<metadata>
Created by potrace 1.15, written by Peter Selinger 2001-2017
</metadata>
<g transform="translate(0.000000,894.000000) scale(0.100000,-0.100000)"
fill="#E0E0E0" stroke="none">
<path d="M4595 8931 c-16 -5 -62 -9 -102 -10 -40 0 -94 -5 -120 -10 -26 -5
-77 -15 -113 -21 -400 -74 -768 -280 -1027 -575 -175 -200 -309 -442 -392
-712 -64 -205 -90 -363 -98 -598 -6 -193 12 -351 68 -590 149 -639 611 -1374
1353 -2155 268 -281 801 -789 1049 -998 24 -20 136 -116 248 -212 112 -96 253
-216 313 -265 60 -50 136 -113 170 -141 34 -27 155 -126 269 -218 l209 -168
36 29 c21 16 96 74 167 128 72 54 148 112 170 130 22 17 72 56 110 86 552 433
978 805 1428 1249 819 807 1353 1554 1609 2255 73 199 103 313 137 525 28 174
33 243 28 395 -6 163 -16 256 -37 355 -7 30 -15 71 -20 90 -13 61 -42 153 -72
230 -194 494 -546 843 -1053 1044 -169 66 -251 89 -455 127 -227 43 -575 45
-750 6 -222 -50 -268 -66 -435 -148 -328 -162 -624 -453 -814 -801 -24 -43
-47 -78 -52 -78 -5 0 -18 19 -30 43 -94 187 -266 408 -436 559 -247 220 -540
360 -878 419 -137 24 -434 42 -480 30z"/>
<path d="M2382 7875 c-40 -14 -98 -39 -130 -57 -148 -82 -402 -280 -546 -426
l-69 -71 43 -48 c57 -64 101 -158 107 -231 11 -124 -105 -480 -302 -922 l-47
-105 21 -115 c33 -175 72 -333 81 -323 4 4 61 98 126 208 200 340 301 553 364
772 19 66 25 76 87 130 91 80 284 291 360 393 80 108 146 234 175 336 18 63
22 105 23 209 0 120 -2 134 -25 180 -19 38 -36 55 -70 73 -57 28 -107 28 -198
-3z"/>
<path d="M10220 7878 c-34 -18 -51 -35 -70 -73 -23 -46 -25 -60 -25 -180 1
-104 5 -146 23 -209 29 -102 95 -228 175 -336 76 -102 269 -313 360 -393 62
-54 68 -64 87 -130 39 -134 94 -271 165 -412 77 -154 325 -578 332 -571 7 6
56 229 77 347 l18 95 -47 104 c-197 442 -313 798 -302 922 6 73 50 167 107
231 l43 48 -69 71 c-144 146 -398 344 -546 426 -75 42 -196 82 -245 82 -21 0
-59 -10 -83 -22z"/>
<path d="M1055 7482 c-100 -49 -157 -116 -258 -304 -26 -48 -75 -124 -108
-169 -142 -191 -229 -371 -299 -620 -46 -162 -61 -257 -69 -449 -8 -158 -12
-185 -40 -273 -18 -54 -57 -153 -88 -220 -97 -214 -140 -322 -164 -413 -23
-84 -24 -106 -23 -364 1 -304 7 -386 84 -1045 56 -480 66 -583 80 -824 15
-237 38 -338 110 -481 87 -172 192 -298 362 -435 497 -400 1064 -636 2251
-940 170 -43 302 -83 325 -96 121 -74 237 -173 315 -269 75 -93 106 -142 192
-300 37 -69 88 -160 113 -204 l45 -78 521 7 c287 4 817 10 1179 14 368 5 661
12 666 17 20 22 141 693 141 782 0 17 5 32 10 32 6 0 10 -15 10 -32 0 -89 121
-760 141 -782 5 -5 298 -12 666 -17 362 -4 892 -10 1179 -14 l521 -7 45 78
c25 44 76 135 113 204 143 263 234 375 415 506 105 77 127 85 417 159 1187
304 1754 540 2251 940 170 137 275 263 362 435 72 143 95 244 110 481 14 241
24 344 80 824 77 659 83 741 84 1045 1 258 0 280 -23 364 -24 91 -67 199 -164
413 -31 67 -70 166 -88 220 -28 88 -32 115 -40 273 -8 192 -23 287 -69 449
-70 249 -157 429 -299 620 -33 45 -82 121 -108 169 -102 190 -159 256 -261
304 -56 27 -70 30 -140 26 -100 -5 -158 -33 -240 -114 -67 -67 -109 -144 -132
-243 -15 -63 -8 -184 13 -251 8 -25 22 -83 31 -131 30 -162 80 -314 202 -605
l63 -151 -32 -89 -32 -89 1 -220 c0 -173 5 -248 21 -351 l21 -131 -26 -84
c-22 -74 -25 -103 -26 -244 -1 -88 3 -217 7 -286 l9 -127 87 0 c176 0 352 -73
483 -203 85 -83 121 -147 140 -248 14 -75 -7 -170 -55 -249 -33 -55 -471 -558
-743 -853 -205 -223 -466 -470 -481 -456 -15 16 -13 95 4 138 21 53 567 724
596 732 9 3 24 20 32 39 7 18 84 119 171 223 86 105 191 232 232 283 l75 93
-12 38 c-14 48 -14 51 3 51 13 0 28 55 18 65 -3 3 -18 5 -33 5 -23 0 -32 8
-48 38 -59 115 -164 156 -431 169 -222 10 -394 -23 -575 -111 -155 -76 -274
-169 -555 -436 -392 -372 -575 -508 -885 -660 -326 -160 -540 -215 -1275 -325
-246 -37 -453 -79 -626 -126 -387 -105 -761 -379 -978 -717 -65 -99 -155 -289
-191 -399 -16 -51 -32 -93 -35 -93 -3 0 -18 40 -33 89 -34 107 -128 303 -192
402 -167 258 -404 464 -711 618 -180 90 -457 160 -894 226 -735 110 -949 165
-1275 325 -310 152 -493 288 -885 660 -281 267 -400 360 -555 436 -181 88
-353 121 -575 111 -267 -13 -372 -54 -431 -169 -16 -30 -25 -38 -48 -38 -15 0
-30 -2 -33 -5 -10 -10 5 -65 18 -65 17 0 17 -3 3 -51 l-12 -38 75 -93 c41 -51
146 -178 232 -283 87 -104 164 -205 171 -223 8 -19 23 -36 32 -39 29 -8 575
-679 596 -732 17 -43 19 -122 4 -138 -15 -14 -276 233 -481 456 -272 295 -710
798 -743 853 -102 169 -72 343 85 497 131 130 307 203 483 203 l86 0 7 92 c24
328 18 469 -24 590 -18 54 -18 57 3 188 16 105 21 179 21 353 l1 220 -32 89
-32 89 63 151 c122 291 172 443 202 605 9 48 23 106 31 131 21 67 28 188 13
251 -23 99 -65 176 -132 243 -84 82 -140 109 -243 114 -72 3 -86 0 -140 -26z"/>
</g>
</svg>
