<?xml version="1.0" standalone="no"?>
<!DOCTYPE svg PUBLIC "-//W3C//DTD SVG 20010904//EN"
 "http://www.w3.org/TR/2001/REC-SVG-20010904/DTD/svg10.dtd">
<svg version="1.0" xmlns="http://www.w3.org/2000/svg"
 width="1280.000000pt" height="640.000000pt" viewBox="0 0 1280.000000 640.000000"
 preserveAspectRatio="xMidYMid meet">
<metadata>
Created by potrace 1.15, written by Peter Selinger 2001-2017
</metadata>
<g transform="translate(0.000000,640.000000) scale(0.100000,-0.100000)"
fill="#000000" stroke="none">
<path d="M10990 5986 c0 -21 40 -102 89 -181 107 -170 108 -175 28 -214 -66
-32 -136 -28 -264 15 -107 36 -183 47 -189 29 -2 -5 34 -52 81 -104 89 -99
115 -141 115 -187 0 -16 -23 -68 -51 -117 -58 -100 -69 -149 -45 -195 21 -40
20 -67 -3 -118 -21 -46 -83 -91 -201 -144 -185 -83 -362 -214 -217 -160 68 26
402 110 434 110 52 0 95 -32 163 -124 78 -106 90 -117 149 -140 65 -25 128
-72 158 -117 27 -41 42 -87 75 -229 22 -97 30 -110 69 -110 40 0 62 39 84 148
27 141 42 154 209 182 121 21 212 47 273 80 33 18 39 18 72 4 20 -8 45 -23 56
-33 24 -23 65 -44 71 -38 3 2 0 16 -6 31 -27 71 -1 179 52 223 13 10 30 32 40
48 9 17 35 41 58 54 34 19 55 23 122 23 44 -1 94 -4 111 -8 18 -4 27 -2 23 4
-3 5 -23 13 -43 16 -70 13 -142 36 -157 52 -25 25 -19 51 24 97 46 50 104 84
215 126 166 61 236 102 206 120 -7 5 -90 8 -184 8 -120 0 -184 5 -212 14 -38
13 -41 18 -71 101 -17 48 -39 99 -48 113 -10 15 -16 28 -14 30 31 26 96 32
189 16 105 -18 149 -22 149 -13 0 4 -78 25 -172 46 -95 21 -204 47 -243 59
l-70 22 -3 47 c-3 51 5 71 72 176 43 67 60 102 50 102 -12 0 -75 -37 -157 -92
-113 -76 -143 -88 -218 -88 -79 0 -166 23 -254 66 -39 19 -75 34 -80 34 -6 0
-41 -21 -79 -45 -113 -74 -113 -74 -291 110 -131 136 -165 167 -165 151z"/>
<path d="M4720 5929 c0 -3 47 -91 105 -197 58 -105 105 -195 105 -199 0 -4
-25 -23 -56 -40 -52 -31 -57 -32 -84 -18 -37 19 -39 19 -33 -4 4 -16 -19 -12
-188 40 -106 32 -194 57 -196 55 -2 -1 54 -69 124 -150 l126 -148 -30 -57
c-17 -31 -38 -80 -48 -108 l-17 -53 -95 0 c-53 0 -94 -2 -92 -4 3 -3 36 -10
74 -16 111 -17 108 -15 102 -69 -2 -25 -1 -73 3 -106 5 -41 4 -64 -4 -71 -6
-6 -149 -83 -318 -170 -169 -87 -306 -159 -305 -160 1 -2 108 26 237 62 129
35 239 64 243 64 5 0 -1 -17 -13 -37 l-22 -38 43 44 c36 37 56 48 121 66 l77
22 40 -62 c22 -34 72 -92 111 -129 l71 -66 -32 -48 -32 -47 43 41 42 41 66
-38 c37 -22 72 -39 78 -39 6 0 42 -102 79 -227 37 -126 71 -234 75 -241 4 -9
19 21 38 75 17 48 49 140 72 204 l41 116 107 6 c118 7 221 32 324 79 l67 31
77 -72 c43 -39 79 -69 80 -68 2 2 -9 51 -25 109 l-29 106 58 57 c31 31 72 81
91 111 l34 55 90 -5 c286 -19 282 -20 80 24 -76 17 -141 32 -142 34 -6 5 37
109 51 125 9 9 117 62 241 116 l226 100 -68 6 c-37 4 -140 10 -228 14 -88 4
-169 11 -181 15 -13 5 -25 24 -33 52 -12 41 -62 136 -97 186 -16 22 -16 22 18
22 19 0 106 -5 192 -11 87 -6 159 -9 162 -7 2 2 -104 28 -236 58 -132 29 -254
62 -270 71 l-29 18 83 153 c46 84 83 154 81 156 -1 1 -78 -45 -171 -103 l-170
-104 -64 19 c-36 11 -104 25 -151 32 l-86 11 -38 68 c-21 38 -40 67 -42 65 -2
-1 -13 -34 -26 -71 l-22 -69 -70 -12 c-38 -7 -79 -15 -90 -18 -16 -4 -44 22
-135 124 -189 213 -210 235 -210 229z"/>
<path d="M1020 5190 c-63 -104 -118 -189 -121 -190 -3 0 -74 66 -157 146 -84
80 -152 143 -152 139 0 -4 45 -115 101 -248 55 -133 103 -247 106 -253 2 -6
-43 -41 -100 -78 -57 -36 -114 -77 -126 -90 l-23 -24 44 -7 c86 -13 98 -17
117 -41 16 -20 18 -31 10 -50 -17 -46 -10 -130 21 -229 16 -54 30 -106 30
-117 0 -11 -13 -36 -30 -54 -68 -77 -49 -114 62 -123 129 -12 148 -35 113
-140 -29 -84 -31 -109 -11 -136 14 -19 17 -19 163 18 194 49 243 55 267 31 20
-19 20 -10 0 -284 -5 -74 -5 -75 14 -54 10 12 53 87 96 167 42 80 83 150 90
156 14 12 126 44 209 61 73 15 106 -3 149 -81 24 -44 41 -64 54 -64 17 0 19 8
19 100 0 89 3 106 27 155 27 54 111 150 148 170 10 6 45 10 77 10 32 0 75 6
96 14 l39 13 -26 19 c-14 10 -37 27 -51 37 -14 10 -32 32 -41 49 -28 54 -17
56 250 64 211 6 235 9 205 20 -19 7 -123 44 -231 81 -109 37 -198 70 -198 73
0 3 16 16 35 30 39 28 45 50 15 50 -11 0 -20 7 -20 14 0 10 22 21 58 32 97 28
232 76 237 85 7 11 -19 17 -110 24 -118 9 -226 25 -258 37 -22 8 -26 15 -21
32 12 39 32 71 84 131 55 64 77 101 67 112 -4 3 -49 1 -99 -6 -51 -7 -122 -15
-156 -18 -57 -5 -64 -4 -60 12 1 10 49 45 106 80 164 98 164 108 1 64 -209
-57 -217 -58 -232 -40 -25 28 -35 55 -47 121 -11 63 -43 140 -58 140 -9 0 -50
-29 -128 -92 -71 -57 -95 -60 -115 -15 -14 33 -45 45 -77 31 -9 -4 -22 -6 -29
-5 -7 1 -17 -9 -24 -21 -23 -45 -52 -68 -84 -68 -42 0 -79 30 -123 99 -36 58
-71 101 -81 101 -3 0 -58 -86 -121 -190z"/>
<path d="M8449 4363 c10 -27 36 -88 57 -138 47 -115 50 -167 11 -201 -34 -29
-113 -33 -170 -9 -44 18 -143 19 -177 2 -43 -22 -37 -46 28 -106 96 -89 99
-131 24 -292 -49 -103 -58 -146 -42 -193 10 -30 8 -42 -10 -83 -43 -98 -119
-151 -353 -248 -119 -49 -152 -67 -152 -81 0 -31 36 -28 135 11 51 19 111 38
134 41 22 4 46 10 51 14 15 11 94 17 88 7 -9 -14 39 3 69 24 35 24 48 24 106
-3 32 -15 86 -61 167 -143 96 -98 133 -128 185 -152 43 -21 71 -41 83 -62 10
-16 29 -87 42 -157 27 -139 48 -178 94 -172 22 3 25 9 29 52 9 110 72 215 154
257 29 15 56 20 106 18 55 -2 86 5 172 35 133 47 202 55 250 28 l35 -19 12 70
c15 90 63 187 115 231 41 36 113 66 156 66 24 0 24 1 -12 40 -20 22 -36 49
-36 60 0 54 92 116 323 219 37 16 67 34 67 39 0 18 -54 33 -153 43 -135 14
-222 34 -258 60 -40 28 -69 88 -69 143 0 40 3 47 30 61 18 9 57 15 102 16 87
0 70 11 -55 35 -97 19 -154 43 -195 83 -52 52 -51 114 3 187 14 20 14 23 0 38
-28 27 -75 18 -190 -36 -98 -47 -117 -53 -176 -53 -56 0 -72 4 -107 28 -54 38
-103 48 -177 36 -33 -5 -100 -12 -150 -15 -106 -6 -136 7 -181 78 -29 46 -162
188 -176 188 -4 0 1 -21 11 -47z"/>
<path d="M8005 3061 c-6 -11 4 -41 14 -41 21 1 25 17 9 32 -9 10 -20 13 -23 9z"/>
<path d="M5183 2428 c3 -7 50 -123 106 -258 l100 -245 -20 -30 c-11 -16 -31
-51 -45 -77 -23 -45 -27 -48 -64 -48 -50 0 -56 -11 -19 -35 29 -19 30 -23 24
-65 -4 -25 -10 -65 -14 -90 l-6 -45 -152 -64 c-84 -36 -151 -67 -148 -69 3 -3
73 -17 156 -31 l152 -26 22 -65 c12 -36 36 -93 53 -126 l31 -61 -152 -63
c-143 -59 -185 -80 -161 -80 46 0 601 -103 626 -116 59 -30 200 -64 269 -64
l67 0 161 -120 c89 -66 164 -120 166 -120 3 0 -26 63 -65 139 l-69 139 66 31
c36 18 88 47 115 66 26 19 55 35 63 35 9 0 98 -60 198 -134 100 -74 183 -133
185 -131 2 1 -49 107 -113 235 l-116 232 23 56 c12 32 23 59 25 61 1 2 21 -11
45 -30 24 -18 49 -37 57 -43 7 -6 -6 27 -29 74 l-42 84 -2 150 c-2 143 -4 156
-34 235 -17 46 -29 89 -25 95 3 6 3 8 -2 4 -5 -5 -26 20 -48 54 -23 34 -64 84
-92 113 l-52 51 58 147 c31 81 55 147 53 147 -3 0 -58 -47 -123 -105 l-118
-105 -54 29 c-30 16 -74 35 -99 42 -25 7 -48 15 -52 18 -4 4 -12 51 -19 106
-6 55 -15 104 -19 108 -4 5 -24 -43 -43 -105 l-37 -114 -87 -11 c-49 -6 -115
-20 -148 -32 -32 -12 -65 -21 -73 -21 -8 0 -71 35 -140 79 -305 189 -345 212
-339 199z"/>
<path d="M470 2229 c-63 -104 -118 -189 -122 -189 -4 0 -75 66 -158 146 -83
81 -152 145 -154 143 -2 -2 45 -119 104 -259 l108 -255 -22 -18 c-11 -9 -55
-38 -96 -63 -75 -46 -130 -91 -130 -106 0 -4 15 -8 33 -8 45 0 103 -18 123
-37 12 -13 14 -26 8 -62 -12 -71 -7 -120 26 -226 31 -100 37 -145 20 -145 -15
0 -60 -72 -60 -97 0 -30 28 -43 89 -43 58 0 127 -24 141 -50 6 -12 2 -38 -15
-86 -14 -38 -25 -83 -25 -101 0 -39 25 -67 54 -58 124 37 297 75 341 75 l54 0
7 -36 c4 -20 4 -66 0 -102 -16 -165 -18 -237 -8 -227 11 11 68 109 134 235 49
92 71 117 112 125 17 4 60 15 95 26 124 37 163 25 209 -66 23 -45 58 -82 70
-71 4 4 7 51 7 104 0 86 3 104 28 153 15 31 53 85 85 119 l57 63 99 8 c55 5
103 12 108 17 6 6 -11 24 -41 45 -55 40 -85 85 -71 108 8 11 53 15 250 17 132
2 240 6 240 10 0 4 -104 43 -230 87 l-230 80 40 33 c41 34 44 52 9 52 -10 0
-19 4 -19 10 0 14 27 25 104 45 38 9 83 23 100 30 17 7 46 19 64 25 64 24 55
26 -225 59 -51 6 -103 15 -117 21 -23 8 -24 11 -14 44 6 20 37 66 68 103 31
38 64 80 73 96 16 25 16 28 2 33 -9 4 -64 -1 -123 -10 -120 -18 -192 -21 -192
-7 0 13 33 37 145 105 53 32 93 62 88 66 -4 5 -82 -12 -172 -36 -128 -34 -167
-41 -178 -32 -22 18 -40 59 -48 108 -11 70 -25 113 -46 139 -18 22 -21 22 -43
8 -13 -9 -45 -34 -71 -57 -56 -48 -82 -65 -112 -74 -18 -6 -22 -2 -28 24 -8
37 -37 54 -73 44 -15 -4 -32 -6 -39 -5 -7 1 -19 -12 -27 -28 -24 -45 -45 -61
-80 -61 -45 0 -79 29 -132 111 -70 110 -62 115 -194 -102z"/>
</g>
</svg>
