<?xml version="1.0" standalone="no"?>
<!DOCTYPE svg PUBLIC "-//W3C//DTD SVG 20010904//EN"
 "http://www.w3.org/TR/2001/REC-SVG-20010904/DTD/svg10.dtd">
<svg version="1.0" xmlns="http://www.w3.org/2000/svg"
 width="1280.000000pt" height="1280.000000pt" viewBox="0 0 1280.000000 1280.000000"
 preserveAspectRatio="xMidYMid meet">
<metadata>
Created by potrace 1.15, written by Peter Selinger 2001-2017
</metadata>
<g transform="translate(0.000000,1280.000000) scale(0.100000,-0.100000)"
fill="#1976D2" stroke="none">
<path d="M6095 12794 c-1453 -77 -2783 -610 -3885 -1558 -145 -125 -460 -436
-593 -586 -363 -410 -664 -850 -908 -1324 -383 -747 -602 -1504 -686 -2371
-24 -252 -24 -858 0 -1110 107 -1113 456 -2102 1060 -3005 363 -543 835 -1052
1352 -1461 889 -703 1933 -1152 3055 -1313 339 -49 507 -60 910 -60 403 0 571
11 910 60 955 137 1845 479 2650 1017 343 230 611 449 924 757 330 325 588
634 833 1000 604 903 953 1892 1060 3005 24 252 24 858 0 1110 -107 1113 -456
2102 -1060 3005 -363 543 -835 1052 -1352 1461 -980 776 -2138 1237 -3400
1354 -162 15 -716 27 -870 19z m13 -921 c-3 -10 -256 -742 -562 -1628 -307
-885 -571 -1650 -588 -1700 -17 -49 -34 -93 -37 -96 -3 -4 -136 -11 -296 -18
-159 -6 -987 -40 -1839 -76 -852 -36 -1551 -63 -1553 -61 -3 2 21 67 52 145
365 921 996 1736 1822 2353 673 503 1445 849 2242 1008 212 42 555 85 710 89
46 1 53 -1 49 -16z m828 2 c986 -95 1935 -465 2754 -1075 661 -493 1219 -1144
1593 -1860 105 -200 245 -516 234 -527 -3 -2 -240 1 -528 7 -729 14 -1443 28
-2124 40 -319 6 -666 13 -772 16 l-191 6 -16 42 c-8 22 -65 176 -126 341 -62
165 -206 554 -322 865 -115 311 -245 660 -288 775 -43 116 -174 467 -290 780
-117 314 -215 578 -217 588 -5 15 3 17 64 17 38 0 141 -7 229 -15z m4799
-4147 c109 -458 155 -849 155 -1333 0 -582 -69 -1060 -230 -1600 -87 -291
-179 -530 -309 -800 -321 -665 -774 -1249 -1362 -1755 l-73 -63 -22 69 c-13
38 -82 265 -154 504 -73 239 -188 617 -255 840 -68 223 -171 560 -228 750 -58
190 -171 563 -252 829 l-148 485 22 17 c11 9 297 236 633 503 337 267 964 763
1393 1104 540 428 782 615 788 606 4 -7 23 -77 42 -156z m-9183 -1009 c794
-600 1451 -1099 1462 -1109 18 -17 14 -34 -149 -616 -321 -1152 -446 -1600
-495 -1774 -27 -96 -81 -290 -120 -430 -111 -397 -191 -683 -196 -702 -3 -10
-14 -18 -24 -18 -25 0 -226 165 -418 343 -988 916 -1584 2190 -1692 3616 -15
200 -12 659 5 856 27 310 62 530 127 810 20 88 32 115 49 115 4 0 657 -491
1451 -1091z m5432 -3854 c828 -550 1506 -1002 1505 -1005 0 -6 -109 -76 -264
-170 -726 -443 -1579 -717 -2420 -780 -192 -15 -611 -15 -785 0 -755 62 -1459
262 -2130 606 -244 125 -443 245 -430 258 28 28 2997 2094 3007 2093 7 -1 690
-452 1517 -1002z"/>
</g>
</svg>
