<?xml version="1.0" encoding="UTF-8"?>
<!DOCTYPE svg PUBLIC "-//W3C//DTD SVG 1.1//EN" "http://www.w3.org/Graphics/SVG/1.1/DTD/svg11.dtd">
<svg xmlns="http://www.w3.org/2000/svg" version="1.1" width="559px" height="446px" style="shape-rendering:geometricPrecision; text-rendering:geometricPrecision; image-rendering:optimizeQuality; fill-rule:evenodd; clip-rule:evenodd" xmlns:xlink="http://www.w3.org/1999/xlink">
<g><path style="opacity:0.373" fill="#100102" d="M 333.5,162.5 C 333.233,159.225 334.233,158.392 336.5,160C 335.627,161.045 334.627,161.878 333.5,162.5 Z"/></g>
<g><path style="opacity:0.122" fill="#120103" d="M 333.5,162.5 C 333.144,164.19 332.144,165.19 330.5,165.5C 329.365,166.474 328.365,167.641 327.5,169C 330.432,169.272 332.932,170.438 335,172.5C 336.356,171.62 337.856,171.286 339.5,171.5C 339.64,173.124 338.973,174.29 337.5,175C 338.529,178.057 339.862,178.057 341.5,175C 343.066,174.235 344.399,174.402 345.5,175.5C 343.436,176.058 341.77,177.225 340.5,179C 340.836,180.03 341.503,180.53 342.5,180.5C 340.335,181.935 338.835,181.269 338,178.5C 337.308,179.025 336.808,179.692 336.5,180.5C 337.246,181.736 337.579,183.07 337.5,184.5C 338.873,184.343 340.207,184.51 341.5,185C 336.05,184.564 334.717,186.398 337.5,190.5C 335.989,189.498 334.322,188.831 332.5,188.5C 332.5,191.5 332.5,194.5 332.5,197.5C 331.167,199.167 331.167,200.833 332.5,202.5C 332.672,203.492 332.338,204.158 331.5,204.5C 330.517,200.702 330.183,196.702 330.5,192.5C 330.167,192.5 329.833,192.5 329.5,192.5C 329.665,188.818 329.499,185.152 329,181.5C 327.989,180.663 326.822,180.33 325.5,180.5C 325.5,179.833 325.167,179.5 324.5,179.5C 326.668,178.37 329.002,178.37 331.5,179.5C 333.441,179.196 335.107,178.363 336.5,177C 329.628,176.201 322.962,177.034 316.5,179.5C 315.614,178.675 315.281,177.675 315.5,176.5C 321.26,176.04 326.927,175.04 332.5,173.5C 331.652,172.009 330.319,171.342 328.5,171.5C 321.793,172.708 315.127,174.041 308.5,175.5C 310.103,174.404 311.603,173.07 313,171.5C 313.414,171.957 313.914,172.291 314.5,172.5C 317.005,170.747 319.671,169.247 322.5,168C 321.892,165.816 322.559,163.816 324.5,162C 327.592,161.264 330.592,161.431 333.5,162.5 Z M 330.5,180.5 C 331.239,180.369 331.906,180.536 332.5,181C 331.62,182.356 331.286,183.856 331.5,185.5C 332.552,185.351 333.552,185.517 334.5,186C 333.069,186.465 331.903,187.299 331,188.5C 330.503,185.854 330.336,183.187 330.5,180.5 Z"/></g>
<g><path style="opacity:0.994" fill="#39070b" d="M 330.5,165.5 C 328.5,166.167 326.5,166.833 324.5,167.5C 324.5,166.167 324.5,164.833 324.5,163.5C 326.857,163.337 329.19,163.503 331.5,164C 330.944,164.383 330.611,164.883 330.5,165.5 Z"/></g>
<g><path style="opacity:0.946" fill="#3a070c" d="M 324.5,179.5 C 324.167,179.5 323.833,179.5 323.5,179.5C 321.251,180.08 319.585,181.413 318.5,183.5C 315.939,183.447 313.939,184.447 312.5,186.5C 313.776,187.645 315.109,187.645 316.5,186.5C 317.647,188.765 317.814,191.098 317,193.5C 314.859,190.679 312.025,189.346 308.5,189.5C 307.5,189.5 306.5,189.5 305.5,189.5C 301.316,189.592 297.983,191.259 295.5,194.5C 295.5,194.833 295.5,195.167 295.5,195.5C 295.167,195.5 294.833,195.5 294.5,195.5C 289.836,201.018 289.503,206.852 293.5,213C 296.206,214.908 299.206,215.741 302.5,215.5C 302.842,216.338 303.508,216.672 304.5,216.5C 304.833,216.5 305.167,216.5 305.5,216.5C 305.5,217.5 305.5,218.5 305.5,219.5C 305.167,219.5 304.833,219.5 304.5,219.5C 303.735,219.923 302.902,220.257 302,220.5C 300.177,219.349 298.344,218.182 296.5,217C 294.934,216.235 293.601,216.402 292.5,217.5C 289.549,214.704 286.216,212.704 282.5,211.5C 284.25,210.341 285.25,208.674 285.5,206.5C 289.87,196.593 286.536,191.26 275.5,190.5C 274.167,190.667 272.833,190.833 271.5,191C 268.813,192.049 266.48,193.549 264.5,195.5C 264.5,195.833 264.5,196.167 264.5,196.5C 263.833,196.5 263.5,196.833 263.5,197.5C 263.167,197.5 262.833,197.5 262.5,197.5C 261.094,197.973 260.427,198.973 260.5,200.5C 259.069,201.78 258.402,203.447 258.5,205.5C 256.864,209.21 256.198,213.21 256.5,217.5C 254.156,216.328 251.823,216.328 249.5,217.5C 248.614,216.675 248.281,215.675 248.5,214.5C 250.722,214.822 252.556,214.155 254,212.5C 254.333,209.167 254.667,205.833 255,202.5C 258.466,197.961 258.299,193.628 254.5,189.5C 256.378,187.491 258.544,187.158 261,188.5C 264.705,187.064 268.205,185.231 271.5,183C 274.757,181.957 278.09,181.457 281.5,181.5C 283.488,181.827 285.488,182.16 287.5,182.5C 289.355,182.66 290.688,181.993 291.5,180.5C 291.833,180.5 292.167,180.5 292.5,180.5C 298.409,180.361 303.743,178.695 308.5,175.5C 315.127,174.041 321.793,172.708 328.5,171.5C 330.319,171.342 331.652,172.009 332.5,173.5C 326.927,175.04 321.26,176.04 315.5,176.5C 315.281,177.675 315.614,178.675 316.5,179.5C 322.962,177.034 329.628,176.201 336.5,177C 335.107,178.363 333.441,179.196 331.5,179.5C 329.002,178.37 326.668,178.37 324.5,179.5 Z M 271.5,203.5 C 272.552,203.351 273.552,203.517 274.5,204C 273.177,204.816 272.511,205.983 272.5,207.5C 271.833,207.5 271.167,207.5 270.5,207.5C 270.833,206.167 271.167,204.833 271.5,203.5 Z"/></g>
<g><path style="opacity:0.811" fill="#290708" d="M 345.5,175.5 C 348.166,175.066 349.333,176.066 349,178.5C 346.846,179.23 344.679,179.897 342.5,180.5C 341.503,180.53 340.836,180.03 340.5,179C 341.77,177.225 343.436,176.058 345.5,175.5 Z"/></g>
<g><path style="opacity:0.365" fill="#33090b" d="M 364.5,179.5 C 361.487,179.107 358.82,179.774 356.5,181.5C 356.414,180.504 356.748,179.671 357.5,179C 360.039,178.204 362.372,178.371 364.5,179.5 Z"/></g>
<g><path style="opacity:0.773" fill="#220406" d="M 308.5,175.5 C 303.743,178.695 298.409,180.361 292.5,180.5C 297.553,178.231 302.887,176.565 308.5,175.5 Z"/></g>
<g><path style="opacity:0.512" fill="#1c0305" d="M 281.5,181.5 C 284.701,181.413 288.035,181.08 291.5,180.5C 290.688,181.993 289.355,182.66 287.5,182.5C 285.488,182.16 283.488,181.827 281.5,181.5 Z"/></g>
<g><path style="opacity:1" fill="#9f1420" d="M 380.5,181.5 C 380.5,197.5 380.5,213.5 380.5,229.5C 380.167,230.5 379.5,231.167 378.5,231.5C 377.675,235.647 377.175,239.981 377,244.5C 376.667,240.833 376.333,237.167 376,233.5C 375.617,232.944 375.117,232.611 374.5,232.5C 373.199,231.118 372.366,229.452 372,227.5C 371.501,221.509 371.334,215.509 371.5,209.5C 371.334,200.494 371.5,191.494 372,182.5C 374.656,179.058 377.49,178.724 380.5,181.5 Z"/></g>
<g><path style="opacity:1" fill="#9e1420" d="M 396.5,181.5 C 396.5,186.167 396.5,190.833 396.5,195.5C 396.5,207.167 396.5,218.833 396.5,230.5C 396.5,231.167 396.167,231.5 395.5,231.5C 394.778,231.918 394.278,232.584 394,233.5C 393.333,248.167 392.667,248.167 392,233.5C 391.617,232.944 391.117,232.611 390.5,232.5C 389.199,231.118 388.366,229.452 388,227.5C 387.333,212.5 387.333,197.5 388,182.5C 390.656,179.058 393.49,178.724 396.5,181.5 Z"/></g>
<g><path style="opacity:1" fill="#98131f" d="M 324.5,180.5 C 324.833,180.5 325.167,180.5 325.5,180.5C 326.822,180.33 327.989,180.663 329,181.5C 329.499,185.152 329.665,188.818 329.5,192.5C 329.174,196.884 329.508,201.217 330.5,205.5C 331.107,205.376 331.44,205.043 331.5,204.5C 332.338,204.158 332.672,203.492 332.5,202.5C 335.219,200.781 337.219,198.447 338.5,195.5C 340.833,193.833 342.833,191.833 344.5,189.5C 344.5,188.833 344.833,188.5 345.5,188.5C 349.314,188.651 350.981,190.651 350.5,194.5C 348.896,195.287 348.229,196.62 348.5,198.5C 348.5,199.167 348.167,199.5 347.5,199.5C 345.738,200.262 344.738,201.596 344.5,203.5C 344.5,204.167 344.167,204.5 343.5,204.5C 342.094,204.973 341.427,205.973 341.5,207.5C 341.5,207.833 341.5,208.167 341.5,208.5C 340.662,208.842 340.328,209.508 340.5,210.5C 344.195,214.526 347.862,218.526 351.5,222.5C 353.121,225.562 352.621,228.228 350,230.5C 349.502,233.482 349.335,236.482 349.5,239.5C 348.5,239.5 347.5,239.5 346.5,239.5C 347.055,235.988 346.388,232.988 344.5,230.5C 343.833,229.167 342.833,228.167 341.5,227.5C 339.409,224.229 337.076,221.063 334.5,218C 333.207,217.51 331.873,217.343 330.5,217.5C 330.666,221.514 330.499,225.514 330,229.5C 329.333,230.167 328.667,230.833 328,231.5C 327.807,236.75 327.307,241.917 326.5,247C 326.167,247.167 325.833,247.333 325.5,247.5C 325.064,239.548 323.731,231.882 321.5,224.5C 321.821,219.305 321.487,214.305 320.5,209.5C 320.334,200.827 320.5,192.16 321,183.5C 322.145,182.364 323.312,181.364 324.5,180.5 Z M 332.5,197.5 C 332.842,198.338 333.508,198.672 334.5,198.5C 333.4,199.605 332.733,200.938 332.5,202.5C 331.167,200.833 331.167,199.167 332.5,197.5 Z M 334.5,220.5 C 333.325,220.719 332.325,220.386 331.5,219.5C 332.86,218.335 333.86,218.668 334.5,220.5 Z"/></g>
<g><path style="opacity:0.289" fill="#240506" d="M 364.5,179.5 C 366.026,180.492 366.693,181.992 366.5,184C 366.486,185.385 366.152,186.551 365.5,187.5C 365.599,184.763 365.265,182.096 364.5,179.5 Z"/></g>
<g><path style="opacity:0.447" fill="#3f0a0d" d="M 381.5,181.5 C 381.167,181.5 380.833,181.5 380.5,181.5C 377.49,178.724 374.656,179.058 372,182.5C 371.5,191.494 371.334,200.494 371.5,209.5C 370.508,202.018 370.175,194.352 370.5,186.5C 370.49,179.686 373.823,177.186 380.5,179C 381.252,179.671 381.586,180.504 381.5,181.5 Z"/></g>
<g><path style="opacity:0.592" fill="#400c0e" d="M 253.5,191.5 C 253.5,191.833 253.5,192.167 253.5,192.5C 253.5,192.833 253.5,193.167 253.5,193.5C 250.794,193.575 248.127,193.908 245.5,194.5C 245.664,191.813 245.497,189.146 245,186.5C 241.794,184.876 239.128,185.542 237,188.5C 236.817,191.365 236.317,194.031 235.5,196.5C 235.5,194.5 235.5,192.5 235.5,190.5C 236.11,186.556 238.443,184.223 242.5,183.5C 243.748,184.04 244.915,184.707 246,185.5C 245.559,191.53 248.059,193.53 253.5,191.5 Z"/></g>
<g><path style="opacity:1" fill="#9a141f" d="M 253.5,193.5 C 256.263,196.497 255.763,199.164 252,201.5C 251.502,204.817 251.335,208.15 251.5,211.5C 250.5,211.5 249.5,211.5 248.5,211.5C 248.5,211.167 248.5,210.833 248.5,210.5C 248.5,208.167 248.5,205.833 248.5,203.5C 247.5,203.5 246.5,203.5 245.5,203.5C 245.218,208.927 245.551,214.26 246.5,219.5C 248.988,221.388 251.988,222.055 255.5,221.5C 255.5,223.167 255.5,224.833 255.5,226.5C 253.183,227.82 251.183,229.486 249.5,231.5C 249.11,234.797 248.11,237.797 246.5,240.5C 247.069,236.671 246.402,233.337 244.5,230.5C 242.716,230.107 241.05,229.441 239.5,228.5C 239.573,226.973 238.906,225.973 237.5,225.5C 237.167,225.5 236.833,225.5 236.5,225.5C 236.672,224.508 236.338,223.842 235.5,223.5C 235.5,222.167 235.5,220.833 235.5,219.5C 236.103,214.381 235.436,209.715 233.5,205.5C 232.5,205.5 231.5,205.5 230.5,205.5C 229.167,202.833 229.167,200.167 230.5,197.5C 230.842,196.662 231.508,196.328 232.5,196.5C 233.5,196.5 234.5,196.5 235.5,196.5C 236.317,194.031 236.817,191.365 237,188.5C 239.128,185.542 241.794,184.876 245,186.5C 245.497,189.146 245.664,191.813 245.5,194.5C 248.127,193.908 250.794,193.575 253.5,193.5 Z"/></g>
<g><path style="opacity:0.741" fill="#4b0f11" d="M 396.5,181.5 C 396.833,181.5 397.167,181.5 397.5,181.5C 398.744,186.298 398.744,190.965 397.5,195.5C 397.167,195.5 396.833,195.5 396.5,195.5C 396.5,190.833 396.5,186.167 396.5,181.5 Z"/></g>
<g><path style="opacity:0.025" fill="#170303" d="M 365.5,187.5 C 365.489,189.017 364.823,190.184 363.5,191C 364.252,191.671 364.586,192.504 364.5,193.5C 360.821,191.385 361.155,189.385 365.5,187.5 Z"/></g>
<g><path style="opacity:1" fill="#97141e" d="M 193.5,199.5 C 191.345,201.617 190.345,204.284 190.5,207.5C 190.768,209.099 190.434,210.432 189.5,211.5C 187.446,214.008 186.446,217.008 186.5,220.5C 184.707,222.426 183.707,224.759 183.5,227.5C 182.833,228.833 181.833,229.833 180.5,230.5C 179.883,230.611 179.383,230.944 179,231.5C 178.181,243.846 177.181,244.179 176,232.5C 175.617,231.944 175.117,231.611 174.5,231.5C 173.5,231.167 172.833,230.5 172.5,229.5C 171.607,226.18 170.273,223.18 168.5,220.5C 168.771,218.62 168.104,217.287 166.5,216.5C 166.34,214.847 165.674,213.514 164.5,212.5C 164.206,209.246 162.873,206.579 160.5,204.5C 159.258,202.611 159.258,200.611 160.5,198.5C 161.833,197.833 162.833,196.833 163.5,195.5C 164.833,194.167 166.167,194.167 167.5,195.5C 167.738,197.404 168.738,198.738 170.5,199.5C 170.427,201.027 171.094,202.027 172.5,202.5C 172.446,205.992 173.446,208.992 175.5,211.5C 176.338,211.842 176.672,212.508 176.5,213.5C 176.281,214.675 176.614,215.675 177.5,216.5C 178.298,216.043 178.631,215.376 178.5,214.5C 180.99,211.374 182.323,207.708 182.5,203.5C 184.31,200.855 185.31,197.855 185.5,194.5C 193.079,188.069 195.746,189.735 193.5,199.5 Z"/></g>
<g><path style="opacity:0.373" fill="#360a0b" d="M 223.5,194.5 C 220.4,193.601 217.233,192.934 214,192.5C 211.093,193.226 208.26,194.226 205.5,195.5C 207.553,192.635 210.387,191.302 214,191.5C 216.898,191.637 219.731,192.137 222.5,193C 223.056,193.383 223.389,193.883 223.5,194.5 Z"/></g>
<g><path style="opacity:0.588" fill="#300909" d="M 337.5,190.5 C 337.833,190.5 338.167,190.5 338.5,190.5C 338.351,191.552 338.517,192.552 339,193.5C 340.451,191.536 342.284,190.203 344.5,189.5C 342.833,191.833 340.833,193.833 338.5,195.5C 337.219,198.447 335.219,200.781 332.5,202.5C 332.733,200.938 333.4,199.605 334.5,198.5C 333.508,198.672 332.842,198.338 332.5,197.5C 332.5,194.5 332.5,191.5 332.5,188.5C 334.322,188.831 335.989,189.498 337.5,190.5 Z"/></g>
<g><path style="opacity:0.027" fill="#1c0305" d="M 338.5,189.5 C 339.833,190.167 339.833,190.167 338.5,189.5 Z"/></g>
<g><path style="opacity:0.243" fill="#2f0a09" d="M 193.5,199.5 C 195.746,189.735 193.079,188.069 185.5,194.5C 186.843,189.922 189.843,188.422 194.5,190C 195.848,193.397 195.514,196.564 193.5,199.5 Z"/></g>
<g><path style="opacity:0.19" fill="#1c0405" d="M 235.5,190.5 C 235.5,192.5 235.5,194.5 235.5,196.5C 234.5,196.5 233.5,196.5 232.5,196.5C 233.842,194.639 234.842,192.639 235.5,190.5 Z"/></g>
<g><path style="opacity:0.043" fill="#180304" d="M 285.5,206.5 C 285.672,205.508 285.338,204.842 284.5,204.5C 284.5,201.833 284.5,199.167 284.5,196.5C 281.366,193.769 277.699,192.436 273.5,192.5C 272.486,193.674 271.153,194.34 269.5,194.5C 269.158,195.338 268.492,195.672 267.5,195.5C 266.167,197.5 264.5,199.167 262.5,200.5C 262.167,199.167 261.833,199.167 261.5,200.5C 261.167,200.5 260.833,200.5 260.5,200.5C 260.427,198.973 261.094,197.973 262.5,197.5C 262.833,198.833 263.167,198.833 263.5,197.5C 264.167,197.5 264.5,197.167 264.5,196.5C 265.833,196.167 265.833,195.833 264.5,195.5C 266.48,193.549 268.813,192.049 271.5,191C 272.833,190.833 274.167,190.667 275.5,190.5C 286.536,191.26 289.87,196.593 285.5,206.5 Z"/></g>
<g><path style="opacity:1" fill="#98141f" d="M 223.5,194.5 C 225.94,200.173 226.94,206.173 226.5,212.5C 226.5,213.5 226.5,214.5 226.5,215.5C 224.707,217.426 223.707,219.759 223.5,222.5C 223.5,223.167 223.5,223.833 223.5,224.5C 222.833,224.833 222.167,225.167 221.5,225.5C 219.166,227.176 218.166,229.509 218.5,232.5C 217.564,236.735 217.231,241.069 217.5,245.5C 216.5,245.5 215.5,245.5 214.5,245.5C 214.5,243.167 214.5,240.833 214.5,238.5C 215.461,236.735 215.795,234.735 215.5,232.5C 213.901,232.232 212.568,232.566 211.5,233.5C 210.527,235.948 210.194,238.615 210.5,241.5C 208.902,239.143 207.902,236.477 207.5,233.5C 204.525,232.345 201.858,230.678 199.5,228.5C 197.827,227.657 196.66,226.324 196,224.5C 195.227,219.748 195.393,215.081 196.5,210.5C 197.768,208.095 198.435,205.428 198.5,202.5C 201.167,200.5 203.5,198.167 205.5,195.5C 208.26,194.226 211.093,193.226 214,192.5C 217.233,192.934 220.4,193.601 223.5,194.5 Z M 213.5,202.5 C 214.391,203.11 215.391,203.443 216.5,203.5C 218.226,205.82 218.893,208.487 218.5,211.5C 217.467,215.574 215.467,219.24 212.5,222.5C 210.625,224.078 209.292,223.745 208.5,221.5C 208.167,221.5 207.833,221.5 207.5,221.5C 207.25,216.42 207.75,211.42 209,206.5C 209.907,204.391 211.407,203.058 213.5,202.5 Z"/></g>
<g><path style="opacity:1" fill="#9a141f" d="M 273.5,192.5 C 277.699,192.436 281.366,193.769 284.5,196.5C 284.5,199.167 284.5,201.833 284.5,204.5C 284.5,204.833 284.5,205.167 284.5,205.5C 283.094,205.973 282.427,206.973 282.5,208.5C 281.094,208.973 280.427,209.973 280.5,211.5C 280.5,211.833 280.5,212.167 280.5,212.5C 280.167,212.5 279.833,212.5 279.5,212.5C 277.326,212.75 275.659,213.75 274.5,215.5C 272.167,215.5 269.833,215.5 267.5,215.5C 267.229,217.38 267.896,218.713 269.5,219.5C 269.577,220.75 270.244,221.583 271.5,222C 273.066,222.765 274.399,222.598 275.5,221.5C 278.455,221.019 280.789,219.519 282.5,217C 284.134,216.506 285.801,216.34 287.5,216.5C 287.5,218.167 287.5,219.833 287.5,221.5C 286.89,222.391 286.557,223.391 286.5,224.5C 282.898,226.885 279.065,228.885 275,230.5C 274.823,234.356 274.323,238.023 273.5,241.5C 271.744,240.448 271.077,238.781 271.5,236.5C 271.446,231.944 269.112,229.444 264.5,229C 262.959,227.629 261.625,226.129 260.5,224.5C 260.326,217.465 260.659,210.465 261.5,203.5C 262.11,202.609 262.443,201.609 262.5,200.5C 264.5,199.167 266.167,197.5 267.5,195.5C 268.492,195.672 269.158,195.338 269.5,194.5C 271.153,194.34 272.486,193.674 273.5,192.5 Z M 271.5,203.5 C 272.552,203.351 273.552,203.517 274.5,204C 273.177,204.816 272.511,205.983 272.5,207.5C 271.833,207.5 271.167,207.5 270.5,207.5C 270.833,206.167 271.167,204.833 271.5,203.5 Z M 272.5,220.5 C 271.391,220.443 270.391,220.11 269.5,219.5C 269.586,218.504 269.252,217.671 268.5,217C 270.167,216.333 271.833,216.333 273.5,217C 271.273,217.704 270.94,218.871 272.5,220.5 Z"/></g>
<g><path style="opacity:1" fill="#96131e" d="M 301.5,192.5 C 306.109,191.974 310.443,192.641 314.5,194.5C 316.164,197.91 315.497,200.577 312.5,202.5C 311.5,202.5 310.5,202.5 309.5,202.5C 307.883,201.962 306.216,201.629 304.5,201.5C 303.005,201.415 302.005,202.081 301.5,203.5C 302.32,205.111 303.654,205.778 305.5,205.5C 305.833,205.5 306.167,205.5 306.5,205.5C 309.113,207.718 312.113,209.385 315.5,210.5C 315.833,210.5 316.167,210.5 316.5,210.5C 317.588,213.556 317.588,216.556 316.5,219.5C 314.244,223.097 311.577,226.431 308.5,229.5C 307.508,229.328 306.842,229.662 306.5,230.5C 305.508,230.328 304.842,230.662 304.5,231.5C 303.518,234.962 303.185,238.629 303.5,242.5C 302.5,242.5 301.5,242.5 300.5,242.5C 301.069,238.671 300.402,235.337 298.5,232.5C 295.53,231.243 292.697,229.576 290,227.5C 289.018,224.225 289.851,221.559 292.5,219.5C 292.833,219.5 293.167,219.5 293.5,219.5C 296.084,219.569 298.084,220.735 299.5,223C 301.066,223.765 302.399,223.598 303.5,222.5C 307.392,221.258 308.392,218.758 306.5,215C 305.552,214.517 304.552,214.351 303.5,214.5C 303.158,213.662 302.492,213.328 301.5,213.5C 301.167,213.5 300.833,213.5 300.5,213.5C 297.325,213.16 295.159,211.493 294,208.5C 293.341,205.112 293.508,201.779 294.5,198.5C 296.858,196.471 299.192,194.471 301.5,192.5 Z"/></g>
<g><path style="opacity:1" fill="#8a141c" d="M 364.5,179.5 C 365.265,182.096 365.599,184.763 365.5,187.5C 361.155,189.385 360.821,191.385 364.5,193.5C 365.926,195.679 366.592,198.179 366.5,201C 365.941,206.415 365.941,211.915 366.5,217.5C 366.333,220.833 366.167,224.167 366,227.5C 365.623,228.942 364.79,229.942 363.5,230.5C 362.677,233.977 362.177,237.644 362,241.5C 361.586,241.957 361.086,242.291 360.5,242.5C 359.676,239.215 359.176,235.882 359,232.5C 358.333,231.833 357.667,231.167 357,230.5C 355.86,219.183 355.527,207.849 356,196.5C 357.698,195.471 358.532,193.971 358.5,192C 356.866,188.747 356.199,185.247 356.5,181.5C 358.82,179.774 361.487,179.107 364.5,179.5 Z"/></g>
<g><path style="opacity:0.617" fill="#590b12" d="M 329.5,192.5 C 329.833,192.5 330.167,192.5 330.5,192.5C 330.183,196.702 330.517,200.702 331.5,204.5C 331.44,205.043 331.107,205.376 330.5,205.5C 329.508,201.217 329.174,196.884 329.5,192.5 Z"/></g>
<g><path style="opacity:0.714" fill="#460b10" d="M 167.5,195.5 C 169.262,196.262 170.262,197.596 170.5,199.5C 168.738,198.738 167.738,197.404 167.5,195.5 Z"/></g>
<g><path style="opacity:0.433" fill="#340a0a" d="M 397.5,181.5 C 397.167,181.5 396.833,181.5 396.5,181.5C 393.49,178.724 390.656,179.058 388,182.5C 387.333,197.5 387.333,212.5 388,227.5C 388.366,229.452 389.199,231.118 390.5,232.5C 388.589,232.426 387.422,231.426 387,229.5C 386.622,221.159 386.122,212.826 385.5,204.5C 385.807,196.981 386.307,189.315 387,181.5C 389.559,178.651 392.726,177.817 396.5,179C 397.252,179.671 397.586,180.504 397.5,181.5 Z"/></g>
<g><path style="opacity:0.255" fill="#260607" d="M 163.5,195.5 C 162.833,196.833 161.833,197.833 160.5,198.5C 160.5,196.5 161.5,195.5 163.5,195.5 Z"/></g>
<g><path style="opacity:0.557" fill="#3e0b0d" d="M 185.5,194.5 C 185.31,197.855 184.31,200.855 182.5,203.5C 182.528,200.084 183.528,197.084 185.5,194.5 Z"/></g>
<g><path style="opacity:0.016" fill="#1b0404" d="M 230.5,197.5 C 229.167,200.167 229.167,202.833 230.5,205.5C 229.414,205.62 228.747,206.287 228.5,207.5C 228.543,208.416 228.876,209.083 229.5,209.5C 229.534,214.395 228.2,218.728 225.5,222.5C 225.631,221.761 225.464,221.094 225,220.5C 224.722,221.416 224.222,222.082 223.5,222.5C 223.707,219.759 224.707,217.426 226.5,215.5C 226.5,214.5 226.5,213.5 226.5,212.5C 226.833,212.5 227.167,212.5 227.5,212.5C 227.647,207.786 227.314,203.119 226.5,198.5C 227.117,198.611 227.617,198.944 228,199.5C 228.417,198.244 229.25,197.577 230.5,197.5 Z"/></g>
<g><path style="opacity:0.431" fill="#350b0b" d="M 205.5,195.5 C 203.5,198.167 201.167,200.5 198.5,202.5C 199.833,199.167 202.167,196.833 205.5,195.5 Z"/></g>
<g><path style="opacity:0.008" fill="#230806" d="M 347.5,199.5 C 347.5,200.167 347.5,200.833 347.5,201.5C 346.5,202.167 345.5,202.833 344.5,203.5C 344.738,201.596 345.738,200.262 347.5,199.5 Z"/></g>
<g><path style="opacity:0.562" fill="#37080b" d="M 351.5,212.5 C 353.218,214.926 353.718,217.593 353,220.5C 349.5,217 346,213.5 342.5,210C 344.141,208.871 345.141,207.371 345.5,205.5C 346.6,204.395 347.267,203.062 347.5,201.5C 349.382,200.779 349.715,199.779 348.5,198.5C 348.229,196.62 348.896,195.287 350.5,194.5C 350.461,196.224 350.794,196.557 351.5,195.5C 352.814,193.105 352.814,190.605 351.5,188C 354.328,187.576 355.661,188.91 355.5,192C 353.95,194.778 352.95,197.778 352.5,201C 353.107,204.143 353.441,207.31 353.5,210.5C 352.325,210.281 351.325,210.614 350.5,211.5C 350.624,212.107 350.957,212.44 351.5,212.5 Z"/></g>
<g><path style="opacity:0.361" fill="#360a0b" d="M 170.5,199.5 C 171.906,199.973 172.573,200.973 172.5,202.5C 171.094,202.027 170.427,201.027 170.5,199.5 Z"/></g>
<g><path style="opacity:0.082" fill="#150303" d="M 260.5,200.5 C 260.833,201.833 261.167,201.833 261.5,200.5C 261.833,200.5 262.167,200.5 262.5,200.5C 262.443,201.609 262.11,202.609 261.5,203.5C 261.167,203.5 260.833,203.5 260.5,203.5C 259.167,203.833 259.167,204.167 260.5,204.5C 260.672,205.492 260.338,206.158 259.5,206.5C 259.5,205.833 259.167,205.5 258.5,205.5C 258.402,203.447 259.069,201.78 260.5,200.5 Z"/></g>
<g><path style="opacity:0.412" fill="#3a0b0d" d="M 193.5,199.5 C 193.02,202.443 192.02,205.11 190.5,207.5C 190.345,204.284 191.345,201.617 193.5,199.5 Z"/></g>
<g><path style="opacity:0.271" fill="#250807" d="M 213.5,202.5 C 211.407,203.058 209.907,204.391 209,206.5C 207.75,211.42 207.25,216.42 207.5,221.5C 206.352,217.019 206.185,212.352 207,207.5C 207.609,203.717 209.776,202.05 213.5,202.5 Z"/></g>
<g><path style="opacity:0.494" fill="#2b0a08" d="M 172.5,202.5 C 173.946,205.254 174.946,208.254 175.5,211.5C 173.446,208.992 172.446,205.992 172.5,202.5 Z"/></g>
<g><path style="opacity:0.518" fill="#330a0a" d="M 198.5,202.5 C 198.435,205.428 197.768,208.095 196.5,210.5C 196.294,207.505 196.96,204.838 198.5,202.5 Z"/></g>
<g><path style="opacity:0.486" fill="#4f0c10" d="M 216.5,203.5 C 217.496,203.414 218.329,203.748 219,204.5C 219.812,208.689 219.645,212.689 218.5,216.5C 218.5,214.833 218.5,213.167 218.5,211.5C 218.893,208.487 218.226,205.82 216.5,203.5 Z"/></g>
<g><path style="opacity:0.141" fill="#140203" d="M 271.5,203.5 C 272.568,202.566 273.901,202.232 275.5,202.5C 275.727,204.933 274.727,206.599 272.5,207.5C 272.511,205.983 273.177,204.816 274.5,204C 273.552,203.517 272.552,203.351 271.5,203.5 Z"/></g>
<g><path style="opacity:0.035" fill="#250906" d="M 343.5,204.5 C 343.5,205.167 343.5,205.833 343.5,206.5C 342.833,206.5 342.5,206.833 342.5,207.5C 342.167,207.5 341.833,207.5 341.5,207.5C 341.427,205.973 342.094,204.973 343.5,204.5 Z"/></g>
<g><path style="opacity:0.255" fill="#280908" d="M 160.5,204.5 C 162.873,206.579 164.206,209.246 164.5,212.5C 162.659,210.151 161.326,207.485 160.5,204.5 Z"/></g>
<g><path style="opacity:0.667" fill="#3d0b0d" d="M 182.5,203.5 C 182.323,207.708 180.99,211.374 178.5,214.5C 179.462,210.605 180.796,206.939 182.5,203.5 Z"/></g>
<g><path style="opacity:0.006" fill="#170303" d="M 284.5,205.5 C 284.5,206.167 284.833,206.5 285.5,206.5C 285.25,208.674 284.25,210.341 282.5,211.5C 282.167,210.167 281.833,210.167 281.5,211.5C 281.167,211.5 280.833,211.5 280.5,211.5C 280.427,209.973 281.094,208.973 282.5,208.5C 282.427,206.973 283.094,205.973 284.5,205.5 Z"/></g>
<g><path style="opacity:0.678" fill="#5c0c13" d="M 223.5,194.5 C 225.262,195.262 226.262,196.596 226.5,198.5C 227.314,203.119 227.647,207.786 227.5,212.5C 227.167,212.5 226.833,212.5 226.5,212.5C 226.94,206.173 225.94,200.173 223.5,194.5 Z"/></g>
<g><path style="opacity:0.146" fill="#1b0304" d="M 233.5,205.5 C 235.436,209.715 236.103,214.381 235.5,219.5C 234.662,219.842 234.328,220.508 234.5,221.5C 233.139,217.383 232.139,213.05 231.5,208.5C 230.817,208.863 230.15,209.196 229.5,209.5C 230.589,207.883 232.256,207.05 234.5,207C 233.944,206.617 233.611,206.117 233.5,205.5 Z"/></g>
<g><path style="opacity:0.122" fill="#220606" d="M 271.5,203.5 C 271.167,204.833 270.833,206.167 270.5,207.5C 271.167,207.5 271.833,207.5 272.5,207.5C 271.713,209.104 270.38,209.771 268.5,209.5C 268.025,206.687 269.025,204.687 271.5,203.5 Z"/></g>
<g><path style="opacity:0.031" fill="#160303" d="M 323.5,179.5 C 323.5,180.167 323.833,180.5 324.5,180.5C 323.312,181.364 322.145,182.364 321,183.5C 320.5,192.16 320.334,200.827 320.5,209.5C 320.5,209.833 320.5,210.167 320.5,210.5C 318.908,209.398 318.075,210.065 318,212.5C 317.722,211.584 317.222,210.918 316.5,210.5C 316.167,209.167 315.833,209.167 315.5,210.5C 312.113,209.385 309.113,207.718 306.5,205.5C 307.833,205.833 309.167,206.167 310.5,206.5C 310.414,205.504 310.748,204.671 311.5,204C 310.584,203.722 309.918,203.222 309.5,202.5C 310.5,202.5 311.5,202.5 312.5,202.5C 315.497,200.577 316.164,197.91 314.5,194.5C 310.443,192.641 306.109,191.974 301.5,192.5C 299.192,194.471 296.858,196.471 294.5,198.5C 293.508,201.779 293.341,205.112 294,208.5C 295.159,211.493 297.325,213.16 300.5,213.5C 300.833,214.833 301.167,214.833 301.5,213.5C 302.492,213.328 303.158,213.662 303.5,214.5C 302.833,214.5 302.5,214.833 302.5,215.5C 299.206,215.741 296.206,214.908 293.5,213C 289.503,206.852 289.836,201.018 294.5,195.5C 294.833,196.833 295.167,196.833 295.5,195.5C 296.833,195.167 296.833,194.833 295.5,194.5C 297.983,191.259 301.316,189.592 305.5,189.5C 306.5,190.833 307.5,190.833 308.5,189.5C 312.025,189.346 314.859,190.679 317,193.5C 317.814,191.098 317.647,188.765 316.5,186.5C 315.109,187.645 313.776,187.645 312.5,186.5C 313.939,184.447 315.939,183.447 318.5,183.5C 319.585,181.413 321.251,180.08 323.5,179.5 Z M 304.5,201.5 C 306.216,201.629 307.883,201.962 309.5,202.5C 309.918,203.222 310.584,203.722 311.5,204C 310.748,204.671 310.414,205.504 310.5,206.5C 309.167,206.167 307.833,205.833 306.5,205.5C 306.167,205.5 305.833,205.5 305.5,205.5C 303.862,204.295 303.529,202.962 304.5,201.5 Z M 318.5,183.5 C 319.97,186.557 319.303,187.057 316.5,185C 317.416,184.722 318.082,184.222 318.5,183.5 Z"/></g>
<g><path style="opacity:0.555" fill="#3a070c" d="M 313.5,203.5 C 315.017,203.489 316.184,202.823 317,201.5C 317.667,203.833 317.667,206.167 317,208.5C 314.842,207.511 313.675,205.844 313.5,203.5 Z"/></g>
<g><path style="opacity:0.007" fill="#150203" d="M 304.5,201.5 C 303.529,202.962 303.862,204.295 305.5,205.5C 303.654,205.778 302.32,205.111 301.5,203.5C 302.005,202.081 303.005,201.415 304.5,201.5 Z"/></g>
<g><path style="opacity:0.991" fill="#3c080c" d="M 234.5,221.5 C 234.328,222.492 234.662,223.158 235.5,223.5C 235.328,224.492 235.662,225.158 236.5,225.5C 236.833,228.167 237.167,228.167 237.5,225.5C 238.906,225.973 239.573,226.973 239.5,228.5C 238.833,228.5 238.5,228.833 238.5,229.5C 239.508,231.339 241.008,232.672 243,233.5C 243.333,236.167 243.667,238.833 244,241.5C 247.156,244.399 249.822,244.065 252,240.5C 252,237.833 252,235.167 252,232.5C 254.469,229.967 257.302,228.467 260.5,228C 262.461,230.635 264.961,232.469 268,233.5C 268.207,237.089 268.707,240.589 269.5,244C 271.579,244.808 273.579,244.641 275.5,243.5C 277.256,239.712 277.922,235.712 277.5,231.5C 280.879,231.147 283.879,229.813 286.5,227.5C 288.361,228.528 289.695,230.028 290.5,232C 292.677,233.202 295.011,233.702 297.5,233.5C 297.335,236.518 297.502,239.518 298,242.5C 301.199,246.659 303.865,246.325 306,241.5C 306.248,238.081 306.748,234.747 307.5,231.5C 307.5,230.833 307.167,230.5 306.5,230.5C 306.842,229.662 307.508,229.328 308.5,229.5C 308.5,230.167 308.833,230.5 309.5,230.5C 310.239,230.631 310.906,230.464 311.5,230C 313.549,227.407 315.715,224.907 318,222.5C 320.594,230.956 321.927,239.623 322,248.5C 324.333,251.167 326.667,251.167 329,248.5C 329.333,244.167 329.667,239.833 330,235.5C 331.446,230.577 332.946,225.91 334.5,221.5C 336.841,225.498 339.674,229.164 343,232.5C 343.1,235.903 343.934,239.07 345.5,242C 347.441,242.743 349.274,242.576 351,241.5C 351.919,237.759 352.919,234.092 354,230.5C 356.11,234.491 357.11,238.824 357,243.5C 357.5,244 358,244.5 358.5,245C 356.866,245.494 355.199,245.66 353.5,245.5C 353.893,248.513 353.226,251.18 351.5,253.5C 344.265,255.692 336.931,257.025 329.5,257.5C 325.755,258.181 322.089,259.181 318.5,260.5C 317.624,260.631 316.957,260.298 316.5,259.5C 317.326,258.549 317.492,257.549 317,256.5C 311.938,258.058 306.772,258.891 301.5,259C 304.718,258.1 307.718,256.933 310.5,255.5C 312.028,254.691 313.694,254.024 315.5,253.5C 316.043,253.44 316.376,253.107 316.5,252.5C 314.608,251.527 312.608,250.86 310.5,250.5C 307.658,251.815 304.658,252.815 301.5,253.5C 302.557,253.906 303.891,253.906 305.5,253.5C 305.5,254.5 305.5,255.5 305.5,256.5C 301.426,256.782 297.426,257.448 293.5,258.5C 293.582,256.748 292.749,255.748 291,255.5C 281.72,256.875 272.887,259.209 264.5,262.5C 262.898,264.074 260.898,264.741 258.5,264.5C 255.482,264.704 252.482,265.037 249.5,265.5C 249.5,266.5 249.5,267.5 249.5,268.5C 246.672,267.503 244.005,267.503 241.5,268.5C 232.4,268.575 223.733,270.242 215.5,273.5C 209.461,276.405 203.127,278.738 196.5,280.5C 193.15,280.335 189.817,280.502 186.5,281C 185.584,281.278 184.918,281.778 184.5,282.5C 181.505,282.294 178.838,282.96 176.5,284.5C 175.081,285.451 173.415,285.784 171.5,285.5C 169.801,285.66 168.134,285.494 166.5,285C 167.711,283.887 167.711,282.72 166.5,281.5C 168.57,278.505 170.903,275.672 173.5,273C 172.316,271.855 172.316,270.688 173.5,269.5C 175.296,267.1 177.63,265.433 180.5,264.5C 184.043,261.494 188.043,258.994 192.5,257C 198.132,255.789 203.466,253.789 208.5,251C 207.5,250.667 206.5,250.333 205.5,250C 209.301,246.507 213.634,245.507 218.5,247C 219.453,245.045 220.787,243.378 222.5,242C 226.316,240.591 229.983,238.924 233.5,237C 231.866,236.506 230.199,236.34 228.5,236.5C 228.762,235.022 228.429,233.689 227.5,232.5C 225.5,233.833 223.5,235.167 221.5,236.5C 220.548,234.955 220.215,233.288 220.5,231.5C 220.5,230.833 220.5,230.167 220.5,229.5C 221.338,229.158 221.672,228.492 221.5,227.5C 222.906,227.027 223.573,226.027 223.5,224.5C 224.5,224.167 225.167,223.5 225.5,222.5C 228.2,218.728 229.534,214.395 229.5,209.5C 230.15,209.196 230.817,208.863 231.5,208.5C 232.139,213.05 233.139,217.383 234.5,221.5 Z M 315.5,253.5 C 313.694,254.024 312.028,254.691 310.5,255.5C 309.022,255.762 307.689,255.429 306.5,254.5C 307.914,253.376 309.414,252.376 311,251.5C 312.622,252.099 314.122,252.766 315.5,253.5 Z"/></g>
<g><path style="opacity:0.495" fill="#350b0b" d="M 380.5,181.5 C 380.833,181.5 381.167,181.5 381.5,181.5C 381.798,197.588 381.798,213.588 381.5,229.5C 381.167,229.5 380.833,229.5 380.5,229.5C 380.5,213.5 380.5,197.5 380.5,181.5 Z"/></g>
<g><path style="opacity:0.432" fill="#39080b" d="M 320.5,209.5 C 321.487,214.305 321.821,219.305 321.5,224.5C 320.566,223.432 320.232,222.099 320.5,220.5C 319.167,217.167 319.167,213.833 320.5,210.5C 320.5,210.167 320.5,209.833 320.5,209.5 Z"/></g>
<g><path style="opacity:0.031" fill="#160303" d="M 254.5,189.5 C 258.299,193.628 258.466,197.961 255,202.5C 254.667,205.833 254.333,209.167 254,212.5C 252.556,214.155 250.722,214.822 248.5,214.5C 248.281,215.675 248.614,216.675 249.5,217.5C 251.823,216.328 254.156,216.328 256.5,217.5C 256.167,218.167 255.833,218.833 255.5,219.5C 253.833,219.5 252.167,219.5 250.5,219.5C 249.5,218.167 248.5,218.167 247.5,219.5C 247.167,219.5 246.833,219.5 246.5,219.5C 245.551,214.26 245.218,208.927 245.5,203.5C 246.5,203.5 247.5,203.5 248.5,203.5C 248.5,205.833 248.5,208.167 248.5,210.5C 247.71,209.391 247.21,208.058 247,206.5C 246.333,208.833 246.333,211.167 247,213.5C 247.717,212.956 248.217,212.289 248.5,211.5C 249.5,211.5 250.5,211.5 251.5,211.5C 251.335,208.15 251.502,204.817 252,201.5C 255.763,199.164 256.263,196.497 253.5,193.5C 253.5,193.167 253.5,192.833 253.5,192.5C 254.833,192.167 254.833,191.833 253.5,191.5C 253.328,190.508 253.662,189.842 254.5,189.5 Z M 248.5,210.5 C 248.5,210.833 248.5,211.167 248.5,211.5C 248.217,212.289 247.717,212.956 247,213.5C 246.333,211.167 246.333,208.833 247,206.5C 247.21,208.058 247.71,209.391 248.5,210.5 Z"/></g>
<g><path style="opacity:0.167" fill="#110203" d="M 258.5,205.5 C 258.328,206.492 258.662,207.158 259.5,207.5C 259.5,208.833 259.5,210.167 259.5,211.5C 258.596,212.209 258.263,213.209 258.5,214.5C 257.833,215.5 257.167,216.5 256.5,217.5C 256.198,213.21 256.864,209.21 258.5,205.5 Z"/></g>
<g><path style="opacity:0.271" fill="#2f0909" d="M 164.5,212.5 C 165.674,213.514 166.34,214.847 166.5,216.5C 164.896,215.713 164.229,214.38 164.5,212.5 Z"/></g>
<g><path style="opacity:0.057" fill="#180204" d="M 370.5,212.5 C 370.5,213.167 370.5,213.833 370.5,214.5C 369.834,218.021 369.167,221.687 368.5,225.5C 367.34,221.541 367.173,217.541 368,213.5C 368.671,212.748 369.504,212.414 370.5,212.5 Z"/></g>
<g><path style="opacity:0.911" fill="#790f18" d="M 260.5,203.5 C 260.833,203.5 261.167,203.5 261.5,203.5C 260.659,210.465 260.326,217.465 260.5,224.5C 259.515,220.366 259.182,216.032 259.5,211.5C 259.5,210.167 259.5,208.833 259.5,207.5C 259.5,207.167 259.5,206.833 259.5,206.5C 260.338,206.158 260.672,205.492 260.5,204.5C 260.5,204.167 260.5,203.833 260.5,203.5 Z"/></g>
<g><path style="opacity:0.345" fill="#2d0808" d="M 176.5,213.5 C 177.167,213.833 177.833,214.167 178.5,214.5C 178.631,215.376 178.298,216.043 177.5,216.5C 176.614,215.675 176.281,214.675 176.5,213.5 Z"/></g>
<g><path style="opacity:0.388" fill="#3d0b0e" d="M 189.5,211.5 C 189.072,214.785 188.072,217.785 186.5,220.5C 186.446,217.008 187.446,214.008 189.5,211.5 Z"/></g>
<g><path style="opacity:0.398" fill="#260807" d="M 370.5,186.5 C 370.175,194.352 370.508,202.018 371.5,209.5C 371.334,215.509 371.501,221.509 372,227.5C 372.366,229.452 373.199,231.118 374.5,232.5C 372.983,232.489 371.816,231.823 371,230.5C 370.501,225.177 370.334,219.844 370.5,214.5C 370.5,213.833 370.5,213.167 370.5,212.5C 369.185,203.735 369.185,195.068 370.5,186.5 Z"/></g>
<g><path style="opacity:0.271" fill="#250706" d="M 166.5,216.5 C 168.104,217.287 168.771,218.62 168.5,220.5C 167.326,219.486 166.66,218.153 166.5,216.5 Z"/></g>
<g><path style="opacity:0.306" fill="#220706" d="M 281.5,211.5 C 281.833,211.5 282.167,211.5 282.5,211.5C 286.216,212.704 289.549,214.704 292.5,217.5C 291.833,218.167 291.167,218.833 290.5,219.5C 289.833,219.5 289.5,219.833 289.5,220.5C 288.833,220.5 288.5,220.833 288.5,221.5C 288.167,221.5 287.833,221.5 287.5,221.5C 287.5,219.833 287.5,218.167 287.5,216.5C 285.801,216.34 284.134,216.506 282.5,217C 280.789,219.519 278.455,221.019 275.5,221.5C 274.791,220.596 273.791,220.263 272.5,220.5C 270.94,218.871 271.273,217.704 273.5,217C 271.833,216.333 270.167,216.333 268.5,217C 269.252,217.671 269.586,218.504 269.5,219.5C 267.896,218.713 267.229,217.38 267.5,215.5C 269.833,215.5 272.167,215.5 274.5,215.5C 275.659,213.75 277.326,212.75 279.5,212.5C 279.833,213.833 280.167,213.833 280.5,212.5C 281.167,212.5 281.5,212.167 281.5,211.5 Z"/></g>
<g><path style="opacity:0.027" fill="#190304" d="M 303.5,214.5 C 304.552,214.351 305.552,214.517 306.5,215C 308.392,218.758 307.392,221.258 303.5,222.5C 302.399,223.598 301.066,223.765 299.5,223C 298.084,220.735 296.084,219.569 293.5,219.5C 296.258,218.033 295.925,217.367 292.5,217.5C 293.601,216.402 294.934,216.235 296.5,217C 298.344,218.182 300.177,219.349 302,220.5C 302.902,220.257 303.735,219.923 304.5,219.5C 304.833,220.833 305.167,220.833 305.5,219.5C 306.833,218.5 306.833,217.5 305.5,216.5C 305.167,215.167 304.833,215.167 304.5,216.5C 303.508,216.672 302.842,216.338 302.5,215.5C 303.167,215.5 303.5,215.167 303.5,214.5 Z"/></g>
<g><path style="opacity:0.493" fill="#420b0e" d="M 396.5,195.5 C 396.833,195.5 397.167,195.5 397.5,195.5C 397.612,206.087 397.945,216.587 398.5,227C 398.613,228.699 397.947,229.866 396.5,230.5C 396.5,218.833 396.5,207.167 396.5,195.5 Z"/></g>
<g><path style="opacity:0.082" fill="#290508" d="M 208.5,221.5 C 209.665,219.584 211.332,218.751 213.5,219C 212.347,220.883 210.681,221.716 208.5,221.5 Z"/></g>
<g><path style="opacity:1" fill="#7a1119" d="M 246.5,219.5 C 246.833,219.5 247.167,219.5 247.5,219.5C 248.5,219.5 249.5,219.5 250.5,219.5C 252.167,219.5 253.833,219.5 255.5,219.5C 256.338,219.842 256.672,220.508 256.5,221.5C 256.784,223.415 256.451,225.081 255.5,226.5C 255.5,224.833 255.5,223.167 255.5,221.5C 251.988,222.055 248.988,221.388 246.5,219.5 Z"/></g>
<g><path style="opacity:0.62" fill="#380c0d" d="M 218.5,211.5 C 218.5,213.167 218.5,214.833 218.5,216.5C 216.923,219.05 214.923,221.05 212.5,222.5C 215.467,219.24 217.467,215.574 218.5,211.5 Z"/></g>
<g><path style="opacity:0.015" fill="#150203" d="M 259.5,211.5 C 259.182,216.032 259.515,220.366 260.5,224.5C 261.625,226.129 262.959,227.629 264.5,229C 269.112,229.444 271.446,231.944 271.5,236.5C 270.539,238.265 270.205,240.265 270.5,242.5C 271.791,242.737 272.791,242.404 273.5,241.5C 274.323,238.023 274.823,234.356 275,230.5C 279.065,228.885 282.898,226.885 286.5,224.5C 286.557,223.391 286.89,222.391 287.5,221.5C 287.833,221.5 288.167,221.5 288.5,221.5C 289.167,221.5 289.5,221.167 289.5,220.5C 290.167,220.5 290.5,220.167 290.5,219.5C 291.167,219.5 291.833,219.5 292.5,219.5C 289.851,221.559 289.018,224.225 290,227.5C 292.697,229.576 295.53,231.243 298.5,232.5C 297.833,232.5 297.5,232.833 297.5,233.5C 295.011,233.702 292.677,233.202 290.5,232C 289.695,230.028 288.361,228.528 286.5,227.5C 283.879,229.813 280.879,231.147 277.5,231.5C 277.922,235.712 277.256,239.712 275.5,243.5C 273.579,244.641 271.579,244.808 269.5,244C 268.707,240.589 268.207,237.089 268,233.5C 264.961,232.469 262.461,230.635 260.5,228C 257.302,228.467 254.469,229.967 252,232.5C 252,235.167 252,237.833 252,240.5C 249.822,244.065 247.156,244.399 244,241.5C 243.667,238.833 243.333,236.167 243,233.5C 241.008,232.672 239.508,231.339 238.5,229.5C 239.167,229.5 239.5,229.167 239.5,228.5C 241.05,229.441 242.716,230.107 244.5,230.5C 245.097,233.941 245.763,237.275 246.5,240.5C 247.209,241.404 248.209,241.737 249.5,241.5C 249.5,238.167 249.5,234.833 249.5,231.5C 251.183,229.486 253.183,227.82 255.5,226.5C 256.451,225.081 256.784,223.415 256.5,221.5C 258.163,219.562 258.829,217.228 258.5,214.5C 258.263,213.209 258.596,212.209 259.5,211.5 Z"/></g>
<g><path style="opacity:0.682" fill="#380b0d" d="M 269.5,219.5 C 270.391,220.11 271.391,220.443 272.5,220.5C 273.209,221.404 274.209,221.737 275.5,221.5C 274.399,222.598 273.066,222.765 271.5,222C 270.244,221.583 269.577,220.75 269.5,219.5 Z"/></g>
<g><path style="opacity:0.341" fill="#31090a" d="M 186.5,220.5 C 186.293,223.241 185.293,225.574 183.5,227.5C 183.707,224.759 184.707,222.426 186.5,220.5 Z"/></g>
<g><path style="opacity:0.459" fill="#420c0e" d="M 207.5,221.5 C 207.833,221.5 208.167,221.5 208.5,221.5C 209.292,223.745 210.625,224.078 212.5,222.5C 210.244,225.305 208.577,224.972 207.5,221.5 Z"/></g>
<g><path style="opacity:0.357" fill="#3c0b0d" d="M 168.5,220.5 C 170.273,223.18 171.607,226.18 172.5,229.5C 170.026,227.102 168.692,224.102 168.5,220.5 Z"/></g>
<g><path style="opacity:0.031" fill="#250507" d="M 193.5,227.5 C 193.897,226.475 194.563,226.308 195.5,227C 194.906,227.464 194.239,227.631 193.5,227.5 Z"/></g>
<g><path style="opacity:0.424" fill="#370b0c" d="M 221.5,225.5 C 221.5,226.167 221.5,226.833 221.5,227.5C 220.662,227.842 220.328,228.508 220.5,229.5C 219.662,229.842 219.328,230.508 219.5,231.5C 219.5,232.167 219.167,232.5 218.5,232.5C 218.166,229.509 219.166,227.176 221.5,225.5 Z"/></g>
<g><path style="opacity:0.184" fill="#250507" d="M 384.5,230.5 C 386.048,230.821 386.715,231.821 386.5,233.5C 381.363,234.719 380.696,233.719 384.5,230.5 Z"/></g>
<g><path style="opacity:0.981" fill="#3c070c" d="M 191.5,243.5 C 189.94,243.519 188.44,243.852 187,244.5C 184.152,243.468 183.319,241.802 184.5,239.5C 186.181,237.992 188.181,236.992 190.5,236.5C 193.22,235.058 196.054,233.725 199,232.5C 201.936,233.534 204.103,235.367 205.5,238C 204.341,242.823 201.508,243.99 197,241.5C 195.5,241.667 194,241.833 192.5,242C 191.944,242.383 191.611,242.883 191.5,243.5 Z"/></g>
<g><path style="opacity:0.036" fill="#130202" d="M 199.5,228.5 C 201.858,230.678 204.525,232.345 207.5,233.5C 207.5,236.5 207.5,239.5 207.5,242.5C 208.791,242.737 209.791,242.404 210.5,241.5C 210.194,238.615 210.527,235.948 211.5,233.5C 212.5,233.5 213.5,233.5 214.5,233.5C 214.5,235.167 214.5,236.833 214.5,238.5C 214.5,240.833 214.5,243.167 214.5,245.5C 215.5,245.5 216.5,245.5 217.5,245.5C 217.231,241.069 217.564,236.735 218.5,232.5C 219.167,232.5 219.5,232.167 219.5,231.5C 219.833,231.5 220.167,231.5 220.5,231.5C 220.215,233.288 220.548,234.955 221.5,236.5C 223.5,235.167 225.5,233.833 227.5,232.5C 228.429,233.689 228.762,235.022 228.5,236.5C 230.199,236.34 231.866,236.506 233.5,237C 229.983,238.924 226.316,240.591 222.5,242C 220.787,243.378 219.453,245.045 218.5,247C 213.634,245.507 209.301,246.507 205.5,250C 206.5,250.333 207.5,250.667 208.5,251C 203.466,253.789 198.132,255.789 192.5,257C 188.043,258.994 184.043,261.494 180.5,264.5C 183.154,262.175 185.488,259.508 187.5,256.5C 190.341,254.914 193.007,253.08 195.5,251C 197.5,251 199.5,251 201.5,251C 204.328,248.752 207.328,246.752 210.5,245C 208.718,244.186 207.218,243.019 206,241.5C 205.28,243.112 205.446,244.612 206.5,246C 204.212,246.418 202.212,245.751 200.5,244C 197.518,243.502 194.518,243.335 191.5,243.5C 191.611,242.883 191.944,242.383 192.5,242C 194,241.833 195.5,241.667 197,241.5C 201.508,243.99 204.341,242.823 205.5,238C 204.103,235.367 201.936,233.534 199,232.5C 196.054,233.725 193.22,235.058 190.5,236.5C 192.279,234.454 193.946,232.287 195.5,230C 196.784,229.316 197.951,229.483 199,230.5C 199.464,229.906 199.631,229.239 199.5,228.5 Z M 219.5,237.5 C 221.604,237.201 223.604,237.534 225.5,238.5C 223.578,239.711 221.745,241.044 220,242.5C 219.506,240.866 219.34,239.199 219.5,237.5 Z"/></g>
<g><path style="opacity:0.388" fill="#3b070c" d="M 211.5,233.5 C 212.568,232.566 213.901,232.232 215.5,232.5C 215.795,234.735 215.461,236.735 214.5,238.5C 214.5,236.833 214.5,235.167 214.5,233.5C 213.5,233.5 212.5,233.5 211.5,233.5 Z"/></g>
<g><path style="opacity:0.123" fill="#170304" d="M 380.5,229.5 C 380.833,229.5 381.167,229.5 381.5,229.5C 380.009,234.445 379.009,239.445 378.5,244.5C 378.5,240.167 378.5,235.833 378.5,231.5C 379.5,231.167 380.167,230.5 380.5,229.5 Z"/></g>
<g><path style="opacity:0.561" fill="#3a080b" d="M 244.5,230.5 C 246.402,233.337 247.069,236.671 246.5,240.5C 245.763,237.275 245.097,233.941 244.5,230.5 Z"/></g>
<g><path style="opacity:0.925" fill="#680d15" d="M 249.5,231.5 C 249.5,234.833 249.5,238.167 249.5,241.5C 248.209,241.737 247.209,241.404 246.5,240.5C 248.11,237.797 249.11,234.797 249.5,231.5 Z"/></g>
<g><path style="opacity:0.851" fill="#5b0b12" d="M 271.5,236.5 C 271.077,238.781 271.744,240.448 273.5,241.5C 272.791,242.404 271.791,242.737 270.5,242.5C 270.205,240.265 270.539,238.265 271.5,236.5 Z"/></g>
<g><path style="opacity:0.07" fill="#160303" d="M 356.5,181.5 C 356.199,185.247 356.866,188.747 358.5,192C 358.532,193.971 357.698,195.471 356,196.5C 355.527,207.849 355.86,219.183 357,230.5C 357.667,231.167 358.333,231.833 359,232.5C 359.176,235.882 359.676,239.215 360.5,242.5C 361.086,242.291 361.586,241.957 362,241.5C 362.177,237.644 362.677,233.977 363.5,230.5C 363.174,233.607 364.341,235.94 367,237.5C 367.667,240.833 367.667,244.167 367,247.5C 366.329,248.252 365.496,248.586 364.5,248.5C 366.463,245.482 366.963,242.149 366,238.5C 364.464,242.661 362.631,246.661 360.5,250.5C 359.355,249.207 359.689,248.041 361.5,247C 359.802,247.497 358.135,247.33 356.5,246.5C 355.933,249.212 355.599,251.879 355.5,254.5C 354.264,253.754 352.93,253.421 351.5,253.5C 353.226,251.18 353.893,248.513 353.5,245.5C 355.199,245.66 356.866,245.494 358.5,245C 358,244.5 357.5,244 357,243.5C 357.11,238.824 356.11,234.491 354,230.5C 352.919,234.092 351.919,237.759 351,241.5C 349.274,242.576 347.441,242.743 345.5,242C 343.934,239.07 343.1,235.903 343,232.5C 339.674,229.164 336.841,225.498 334.5,221.5C 332.946,225.91 331.446,230.577 330,235.5C 329.667,239.833 329.333,244.167 329,248.5C 326.667,251.167 324.333,251.167 322,248.5C 321.927,239.623 320.594,230.956 318,222.5C 315.715,224.907 313.549,227.407 311.5,230C 310.906,230.464 310.239,230.631 309.5,230.5C 308.833,230.5 308.5,230.167 308.5,229.5C 311.577,226.431 314.244,223.097 316.5,219.5C 316.684,221.925 317.351,221.925 318.5,219.5C 319.183,219.863 319.85,220.196 320.5,220.5C 320.232,222.099 320.566,223.432 321.5,224.5C 323.731,231.882 325.064,239.548 325.5,247.5C 325.833,247.333 326.167,247.167 326.5,247C 327.307,241.917 327.807,236.75 328,231.5C 328.667,230.833 329.333,230.167 330,229.5C 330.499,225.514 330.666,221.514 330.5,217.5C 331.873,217.343 333.207,217.51 334.5,218C 337.076,221.063 339.409,224.229 341.5,227.5C 342.833,228.167 343.833,229.167 344.5,230.5C 346.388,232.988 347.055,235.988 346.5,239.5C 347.5,239.5 348.5,239.5 349.5,239.5C 349.335,236.482 349.502,233.482 350,230.5C 352.621,228.228 353.121,225.562 351.5,222.5C 347.862,218.526 344.195,214.526 340.5,210.5C 341.338,210.158 341.672,209.492 341.5,208.5C 342.167,208.5 342.5,208.167 342.5,207.5C 343.167,207.5 343.5,207.167 343.5,206.5C 344.167,206.167 344.833,205.833 345.5,205.5C 345.141,207.371 344.141,208.871 342.5,210C 346,213.5 349.5,217 353,220.5C 353.718,217.593 353.218,214.926 351.5,212.5C 350.957,212.44 350.624,212.107 350.5,211.5C 351.325,210.614 352.325,210.281 353.5,210.5C 353.441,207.31 353.107,204.143 352.5,201C 352.95,197.778 353.95,194.778 355.5,192C 355.661,188.91 354.328,187.576 351.5,188C 352.814,190.605 352.814,193.105 351.5,195.5C 351.5,194.833 351.167,194.5 350.5,194.5C 350.981,190.651 349.314,188.651 345.5,188.5C 348.139,187.754 350.806,186.754 353.5,185.5C 354.086,185.709 354.586,186.043 355,186.5C 355.198,184.618 355.698,182.952 356.5,181.5 Z M 334.5,220.5 C 333.86,218.668 332.86,218.335 331.5,219.5C 332.325,220.386 333.325,220.719 334.5,220.5 Z"/></g>
<g><path style="opacity:0.757" fill="#420e0f" d="M 395.5,231.5 C 395.666,235.846 395.499,240.179 395,244.5C 393.667,245.833 392.333,245.833 391,244.5C 390.501,240.514 390.334,236.514 390.5,232.5C 391.117,232.611 391.617,232.944 392,233.5C 392.667,248.167 393.333,248.167 394,233.5C 394.278,232.584 394.778,231.918 395.5,231.5 Z"/></g>
<g><path style="opacity:0.404" fill="#310b0a" d="M 180.5,230.5 C 179.226,233.656 179.226,236.823 180.5,240C 178.961,243.007 177.128,243.174 175,240.5C 174.502,237.518 174.335,234.518 174.5,231.5C 175.117,231.611 175.617,231.944 176,232.5C 177.181,244.179 178.181,243.846 179,231.5C 179.383,230.944 179.883,230.611 180.5,230.5 Z"/></g>
<g><path style="opacity:0.855" fill="#550b12" d="M 207.5,233.5 C 207.902,236.477 208.902,239.143 210.5,241.5C 209.791,242.404 208.791,242.737 207.5,242.5C 207.5,239.5 207.5,236.5 207.5,233.5 Z"/></g>
<g><path style="opacity:0.096" fill="#150203" d="M 306.5,230.5 C 307.167,230.5 307.5,230.833 307.5,231.5C 306.748,234.747 306.248,238.081 306,241.5C 303.865,246.325 301.199,246.659 298,242.5C 297.502,239.518 297.335,236.518 297.5,233.5C 298.167,233.5 298.5,233.167 298.5,232.5C 300.402,235.337 301.069,238.671 300.5,242.5C 301.5,242.5 302.5,242.5 303.5,242.5C 303.185,238.629 303.518,234.962 304.5,231.5C 304.842,230.662 305.508,230.328 306.5,230.5 Z"/></g>
<g><path style="opacity:0.725" fill="#500f12" d="M 378.5,231.5 C 378.5,235.833 378.5,240.167 378.5,244.5C 377.09,245.828 375.924,245.495 375,243.5C 374.501,239.848 374.335,236.182 374.5,232.5C 375.117,232.611 375.617,232.944 376,233.5C 376.333,237.167 376.667,240.833 377,244.5C 377.175,239.981 377.675,235.647 378.5,231.5 Z"/></g>
<g><path style="opacity:0.975" fill="#260707" d="M 184.5,239.5 C 183.319,241.802 184.152,243.468 187,244.5C 188.44,243.852 189.94,243.519 191.5,243.5C 189.312,245.755 186.646,246.589 183.5,246C 180.598,243.136 180.932,240.969 184.5,239.5 Z"/></g>
<g><path style="opacity:0.796" fill="#300809" d="M 364.5,248.5 C 364.042,251.309 362.709,251.976 360.5,250.5C 362.631,246.661 364.464,242.661 366,238.5C 366.963,242.149 366.463,245.482 364.5,248.5 Z"/></g>
<g><path style="opacity:0.065" fill="#150203" d="M 351.5,253.5 C 351.915,255.948 350.915,257.281 348.5,257.5C 342.243,257.251 335.909,257.251 329.5,257.5C 336.931,257.025 344.265,255.692 351.5,253.5 Z"/></g>
<g><path style="opacity:0.227" fill="#100102" d="M 315.5,253.5 C 314.122,252.766 312.622,252.099 311,251.5C 309.414,252.376 307.914,253.376 306.5,254.5C 307.689,255.429 309.022,255.762 310.5,255.5C 307.718,256.933 304.718,258.1 301.5,259C 306.772,258.891 311.938,258.058 317,256.5C 317.492,257.549 317.326,258.549 316.5,259.5C 316.957,260.298 317.624,260.631 318.5,260.5C 317.726,261.147 316.726,261.48 315.5,261.5C 313.624,261.151 312.124,260.484 311,259.5C 305.091,261.407 299.258,261.074 293.5,258.5C 297.426,257.448 301.426,256.782 305.5,256.5C 305.5,255.5 305.5,254.5 305.5,253.5C 303.891,253.906 302.557,253.906 301.5,253.5C 304.658,252.815 307.658,251.815 310.5,250.5C 312.608,250.86 314.608,251.527 316.5,252.5C 316.376,253.107 316.043,253.44 315.5,253.5 Z"/></g>
<g><path style="opacity:0.065" fill="#0c0101" d="M 293.5,258.5 C 289.51,257.688 285.51,257.855 281.5,259C 280.137,260.945 279.303,263.112 279,265.5C 277.556,267.155 275.722,267.822 273.5,267.5C 274.057,265.051 274.057,262.718 273.5,260.5C 270.601,261.642 267.601,262.308 264.5,262.5C 272.887,259.209 281.72,256.875 291,255.5C 292.749,255.748 293.582,256.748 293.5,258.5 Z"/></g>
<g><path style="opacity:0.8" fill="#230406" d="M 258.5,264.5 C 255.006,265.801 251.673,267.634 248.5,270C 246.564,270.813 244.564,271.313 242.5,271.5C 241.761,271.631 241.094,271.464 240.5,271C 243.402,270.081 243.735,269.248 241.5,268.5C 244.005,267.503 246.672,267.503 249.5,268.5C 249.5,267.5 249.5,266.5 249.5,265.5C 252.482,265.037 255.482,264.704 258.5,264.5 Z"/></g>
<g><path style="opacity:0.034" fill="#0f0102" d="M 241.5,268.5 C 243.735,269.248 243.402,270.081 240.5,271C 241.094,271.464 241.761,271.631 242.5,271.5C 238.508,273.233 234.341,274.9 230,276.5C 229.667,274.953 230.167,273.62 231.5,272.5C 230.167,272.167 228.833,271.833 227.5,271.5C 223.49,272.17 219.49,272.837 215.5,273.5C 223.733,270.242 232.4,268.575 241.5,268.5 Z"/></g>
<g><path style="opacity:0.412" fill="#160203" d="M 173.5,269.5 C 172.316,270.688 172.316,271.855 173.5,273C 170.903,275.672 168.57,278.505 166.5,281.5C 167.711,282.72 167.711,283.887 166.5,285C 168.134,285.494 169.801,285.66 171.5,285.5C 169.735,286.461 167.735,286.795 165.5,286.5C 165.643,284.738 165.309,283.071 164.5,281.5C 167.936,277.17 170.936,273.17 173.5,269.5 Z"/></g>
<g><path style="opacity:0.671" fill="#1c0205" d="M 196.5,280.5 C 192.684,281.482 188.684,282.149 184.5,282.5C 184.918,281.778 185.584,281.278 186.5,281C 189.817,280.502 193.15,280.335 196.5,280.5 Z"/></g>
<g><path style="opacity:0.004" fill="#120102" d="M 184.5,282.5 C 182.095,283.768 179.428,284.435 176.5,284.5C 178.838,282.96 181.505,282.294 184.5,282.5 Z"/></g>
</svg>
