<?xml version="1.0" encoding="UTF-8"?>
<!DOCTYPE svg PUBLIC "-//W3C//DTD SVG 1.1//EN" "http://www.w3.org/Graphics/SVG/1.1/DTD/svg11.dtd">
<svg xmlns="http://www.w3.org/2000/svg" version="1.1" width="253px" height="146px" style="shape-rendering:geometricPrecision; text-rendering:geometricPrecision; image-rendering:optimizeQuality; fill-rule:evenodd; clip-rule:evenodd" xmlns:xlink="http://www.w3.org/1999/xlink">
<g><path style="opacity:0.306" fill="#0f0102" d="M 181.5,12.5 C 181.233,9.22497 182.233,8.39164 184.5,10C 183.627,11.045 182.627,11.8783 181.5,12.5 Z"/></g>
<g><path style="opacity:0.169" fill="#120102" d="M 181.5,12.5 C 181.144,14.1898 180.144,15.1898 178.5,15.5C 177.365,16.4745 176.365,17.6412 175.5,19C 178.432,19.2718 180.932,20.4385 183,22.5C 184.356,21.6198 185.856,21.2865 187.5,21.5C 187.64,23.1238 186.973,24.2904 185.5,25C 186.529,28.0571 187.862,28.0571 189.5,25C 191.066,24.235 192.399,24.4017 193.5,25.5C 191.606,26.0476 189.94,27.0476 188.5,28.5C 190.987,28.7824 193.653,28.7824 196.5,28.5C 193.962,29.189 191.462,30.189 189,31.5C 187.347,31.1802 186.347,30.1802 186,28.5C 185.308,29.0253 184.808,29.6919 184.5,30.5C 185.246,31.7362 185.579,33.0695 185.5,34.5C 186.873,34.3433 188.207,34.51 189.5,35C 184.05,34.5644 182.717,36.3978 185.5,40.5C 183.989,39.4975 182.322,38.8308 180.5,38.5C 180.5,41.5 180.5,44.5 180.5,47.5C 179.167,49.1667 179.167,50.8333 180.5,52.5C 180.443,53.609 180.11,54.609 179.5,55.5C 178.515,51.3656 178.182,47.0323 178.5,42.5C 178.167,42.5 177.833,42.5 177.5,42.5C 177.665,38.8183 177.499,35.1516 177,31.5C 175.989,30.6634 174.822,30.33 173.5,30.5C 173.5,29.8333 173.167,29.5 172.5,29.5C 175.659,28.9268 178.992,28.7601 182.5,29C 183.167,28.3333 183.833,27.6667 184.5,27C 177.628,26.2009 170.962,27.0342 164.5,29.5C 163.614,28.675 163.281,27.675 163.5,26.5C 169.26,26.0399 174.927,25.0399 180.5,23.5C 179.652,22.0089 178.319,21.3422 176.5,21.5C 169.793,22.708 163.127,24.0414 156.5,25.5C 158.103,24.4036 159.603,23.0703 161,21.5C 161.414,21.9574 161.914,22.2907 162.5,22.5C 165.005,20.7467 167.671,19.2467 170.5,18C 169.892,15.8159 170.559,13.8159 172.5,12C 175.592,11.2642 178.592,11.4309 181.5,12.5 Z M 178.5,30.5 C 179.239,30.369 179.906,30.5357 180.5,31C 179.62,32.3561 179.286,33.8561 179.5,35.5C 180.552,35.3505 181.552,35.5172 182.5,36C 181.069,36.4652 179.903,37.2986 179,38.5C 178.503,35.854 178.336,33.1873 178.5,30.5 Z"/></g>
<g><path style="opacity:0.892" fill="#36070b" d="M 178.5,15.5 C 176.5,16.1667 174.5,16.8333 172.5,17.5C 172.5,16.1667 172.5,14.8333 172.5,13.5C 174.857,13.3367 177.19,13.5034 179.5,14C 178.944,14.3826 178.611,14.8826 178.5,15.5 Z"/></g>
<g><path style="opacity:0.996" fill="#3a070b" d="M 172.5,29.5 C 172.167,29.5 171.833,29.5 171.5,29.5C 169.251,30.0798 167.585,31.4131 166.5,33.5C 163.939,33.4469 161.939,34.4469 160.5,36.5C 161.776,37.6446 163.109,37.6446 164.5,36.5C 165.647,38.7649 165.814,41.0982 165,43.5C 162.859,40.6792 160.025,39.3459 156.5,39.5C 155.5,39.5 154.5,39.5 153.5,39.5C 149.316,39.5919 145.983,41.2586 143.5,44.5C 143.5,44.8333 143.5,45.1667 143.5,45.5C 143.167,45.5 142.833,45.5 142.5,45.5C 138.44,49.8561 137.607,54.8561 140,60.5C 142.513,64.1727 146.013,65.8394 150.5,65.5C 150.842,66.3382 151.508,66.6716 152.5,66.5C 152.833,66.5 153.167,66.5 153.5,66.5C 153.5,67.5 153.5,68.5 153.5,69.5C 153.167,69.5 152.833,69.5 152.5,69.5C 151.735,69.9234 150.902,70.2568 150,70.5C 148.177,69.3488 146.344,68.1821 144.5,67C 142.934,66.235 141.601,66.4017 140.5,67.5C 137.549,64.7043 134.216,62.7043 130.5,61.5C 132.25,60.3406 133.25,58.674 133.5,56.5C 135.964,52.7223 136.13,48.7223 134,44.5C 129.929,40.8567 125.429,39.8567 120.5,41.5C 117.279,41.8961 114.612,43.2295 112.5,45.5C 112.5,46.1667 112.833,46.5 113.5,46.5C 113.833,46.5 114.167,46.5 114.5,46.5C 113.5,48.1667 112.167,49.5 110.5,50.5C 110.167,49.1667 109.833,49.1667 109.5,50.5C 109.167,50.5 108.833,50.5 108.5,50.5C 105.151,55.5675 103.818,61.2341 104.5,67.5C 101.863,66.3697 99.1967,66.3697 96.5,67.5C 96.5,66.5 96.5,65.5 96.5,64.5C 98.7224,64.822 100.556,64.1554 102,62.5C 102.333,59.1667 102.667,55.8333 103,52.5C 106.06,48.593 106.227,44.593 103.5,40.5C 103.863,39.8165 104.196,39.1499 104.5,38.5C 109.79,38.4505 114.79,36.6172 119.5,33C 122.757,31.9571 126.09,31.4571 129.5,31.5C 131.488,31.8271 133.488,32.1604 135.5,32.5C 137.355,32.6598 138.688,31.9931 139.5,30.5C 139.833,30.5 140.167,30.5 140.5,30.5C 146.409,30.3615 151.743,28.6948 156.5,25.5C 163.127,24.0414 169.793,22.708 176.5,21.5C 178.319,21.3422 179.652,22.0089 180.5,23.5C 174.927,25.0399 169.26,26.0399 163.5,26.5C 163.281,27.675 163.614,28.675 164.5,29.5C 170.962,27.0342 177.628,26.2009 184.5,27C 183.833,27.6667 183.167,28.3333 182.5,29C 178.992,28.7601 175.659,28.9268 172.5,29.5 Z M 119.5,53.5 C 120.552,53.3505 121.552,53.5172 122.5,54C 121.177,54.8159 120.511,55.9826 120.5,57.5C 119.833,57.5 119.167,57.5 118.5,57.5C 118.833,56.1667 119.167,54.8333 119.5,53.5 Z"/></g>
<g><path style="opacity:0.811" fill="#2d0708" d="M 193.5,25.5 C 196.534,25.183 197.534,26.183 196.5,28.5C 193.653,28.7824 190.987,28.7824 188.5,28.5C 189.94,27.0476 191.606,26.0476 193.5,25.5 Z"/></g>
<g><path style="opacity:0.38" fill="#33080a" d="M 212.5,29.5 C 209.487,29.1072 206.82,29.7739 204.5,31.5C 204.414,30.5041 204.748,29.6708 205.5,29C 208.039,28.2042 210.372,28.3709 212.5,29.5 Z"/></g>
<g><path style="opacity:0.773" fill="#210305" d="M 156.5,25.5 C 151.743,28.6948 146.409,30.3615 140.5,30.5C 145.553,28.2314 150.887,26.5648 156.5,25.5 Z"/></g>
<g><path style="opacity:0.54" fill="#1c0204" d="M 129.5,31.5 C 132.701,31.4129 136.035,31.0796 139.5,30.5C 138.688,31.9931 137.355,32.6598 135.5,32.5C 133.488,32.1604 131.488,31.8271 129.5,31.5 Z"/></g>
<g><path style="opacity:1" fill="#9e1420" d="M 228.5,31.5 C 228.5,47.5 228.5,63.5 228.5,79.5C 228.167,80.5 227.5,81.1667 226.5,81.5C 225.675,85.6472 225.175,89.9805 225,94.5C 225.102,90.0442 224.268,86.0442 222.5,82.5C 221.496,81.3172 220.662,79.9839 220,78.5C 219.333,63.1667 219.333,47.8333 220,32.5C 222.656,29.0577 225.49,28.7244 228.5,31.5 Z"/></g>
<g><path style="opacity:1" fill="#9e1420" d="M 244.5,31.5 C 244.5,47.8333 244.5,64.1667 244.5,80.5C 244.5,81.1667 244.167,81.5 243.5,81.5C 242.883,81.6107 242.383,81.944 242,82.5C 241.667,86.5 241.333,90.5 241,94.5C 240.667,90.8333 240.333,87.1667 240,83.5C 239.617,82.944 239.117,82.6107 238.5,82.5C 237.199,81.1184 236.366,79.4517 236,77.5C 235.333,62.5 235.333,47.5 236,32.5C 238.656,29.0577 241.49,28.7244 244.5,31.5 Z"/></g>
<g><path style="opacity:1" fill="#98131f" d="M 172.5,30.5 C 172.833,30.5 173.167,30.5 173.5,30.5C 174.822,30.33 175.989,30.6634 177,31.5C 177.499,35.1516 177.665,38.8183 177.5,42.5C 177.173,47.2137 177.507,51.8804 178.5,56.5C 179.107,56.3764 179.44,56.0431 179.5,55.5C 180.11,54.609 180.443,53.609 180.5,52.5C 183.219,50.7807 185.219,48.4474 186.5,45.5C 188.833,43.8333 190.833,41.8333 192.5,39.5C 192.5,38.8333 192.833,38.5 193.5,38.5C 197.314,38.6509 198.981,40.6509 198.5,44.5C 196.896,45.287 196.229,46.6203 196.5,48.5C 196.5,49.1667 196.167,49.5 195.5,49.5C 193.738,50.2623 192.738,51.5956 192.5,53.5C 192.5,54.1667 192.167,54.5 191.5,54.5C 190.094,54.9731 189.427,55.9731 189.5,57.5C 189.5,57.8333 189.5,58.1667 189.5,58.5C 188.662,58.8417 188.328,59.5084 188.5,60.5C 192.195,64.5259 195.862,68.5259 199.5,72.5C 201.121,75.5618 200.621,78.2284 198,80.5C 197.502,83.4816 197.335,86.4816 197.5,89.5C 196.5,89.5 195.5,89.5 194.5,89.5C 195.055,85.9878 194.388,82.9878 192.5,80.5C 191.833,79.1667 190.833,78.1667 189.5,77.5C 187.409,74.2295 185.076,71.0628 182.5,68C 181.207,67.51 179.873,67.3433 178.5,67.5C 178.666,71.5138 178.499,75.5138 178,79.5C 177.333,80.1667 176.667,80.8333 176,81.5C 175.807,86.7503 175.307,91.917 174.5,97C 174.167,97.1667 173.833,97.3333 173.5,97.5C 173.064,89.5483 171.731,81.8817 169.5,74.5C 169.821,69.3054 169.487,64.3054 168.5,59.5C 168.334,50.8269 168.5,42.1603 169,33.5C 170.145,32.3636 171.312,31.3636 172.5,30.5 Z M 180.5,47.5 C 180.842,48.3382 181.508,48.6716 182.5,48.5C 181.4,49.6049 180.733,50.9382 180.5,52.5C 179.167,50.8333 179.167,49.1667 180.5,47.5 Z M 182.5,70.5 C 181.325,70.719 180.325,70.3857 179.5,69.5C 180.86,68.3347 181.86,68.668 182.5,70.5 Z"/></g>
<g><path style="opacity:0.292" fill="#230405" d="M 212.5,29.5 C 214.026,30.4919 214.693,31.9919 214.5,34C 214.486,35.3847 214.152,36.5514 213.5,37.5C 213.599,34.7628 213.265,32.0961 212.5,29.5 Z"/></g>
<g><path style="opacity:0.592" fill="#3a0c0b" d="M 101.5,41.5 C 101.5,41.8333 101.5,42.1667 101.5,42.5C 101.5,42.8333 101.5,43.1667 101.5,43.5C 98.7938,43.5751 96.1272,43.9084 93.5,44.5C 93.7771,41.5525 93.4438,38.7191 92.5,36C 87.85,35.1524 84.85,36.9857 83.5,41.5C 83.5,41.1667 83.5,40.8333 83.5,40.5C 84.1101,36.5563 86.4434,34.2229 90.5,33.5C 91.7481,34.0402 92.9148,34.7069 94,35.5C 93.5589,41.5303 96.0589,43.5303 101.5,41.5 Z"/></g>
<g><path style="opacity:1" fill="#99141f" d="M 101.5,43.5 C 104.263,46.497 103.763,49.1637 100,51.5C 99.8236,54.8818 99.3236,58.2152 98.5,61.5C 97.2054,58.9881 96.5387,56.3214 96.5,53.5C 95.5,53.5 94.5,53.5 93.5,53.5C 93.2175,58.9265 93.5509,64.2599 94.5,69.5C 95.9161,71.8507 97.5828,71.8507 99.5,69.5C 100.833,69.5 102.167,69.5 103.5,69.5C 104.338,69.8417 104.672,70.5084 104.5,71.5C 103.804,75.8807 101.471,79.214 97.5,81.5C 97.11,84.7967 96.11,87.7967 94.5,90.5C 95.069,86.6707 94.4023,83.3373 92.5,80.5C 89.6044,79.602 87.271,77.9353 85.5,75.5C 85.1667,75.5 84.8333,75.5 84.5,75.5C 84.6716,74.5084 84.3382,73.8417 83.5,73.5C 83.5,72.1667 83.5,70.8333 83.5,69.5C 84.1031,64.3814 83.4364,59.7147 81.5,55.5C 80.5,55.5 79.5,55.5 78.5,55.5C 77.1667,52.8333 77.1667,50.1667 78.5,47.5C 78.8417,46.6618 79.5084,46.3284 80.5,46.5C 81.5,46.5 82.5,46.5 83.5,46.5C 83.5,44.8333 83.5,43.1667 83.5,41.5C 84.85,36.9857 87.85,35.1524 92.5,36C 93.4438,38.7191 93.7771,41.5525 93.5,44.5C 96.1272,43.9084 98.7938,43.5751 101.5,43.5 Z"/></g>
<g><path style="opacity:0.025" fill="#170202" d="M 213.5,37.5 C 213.489,39.0174 212.823,40.1841 211.5,41C 212.252,41.6708 212.586,42.5041 212.5,43.5C 208.821,41.3852 209.155,39.3852 213.5,37.5 Z"/></g>
<g><path style="opacity:1" fill="#97141e" d="M 41.5,49.5 C 38.7925,52.9555 37.4591,56.9555 37.5,61.5C 34.678,65.624 33.0114,70.2907 32.5,75.5C 31.9202,77.7488 30.5869,79.4154 28.5,80.5C 27.8826,80.6107 27.3826,80.944 27,81.5C 26.8236,84.8818 26.3236,88.2152 25.5,91.5C 25.0935,88.0609 24.0935,85.0609 22.5,82.5C 21.5,81.1667 20.5,79.8333 19.5,78.5C 19.6545,75.284 18.6545,72.6174 16.5,70.5C 16.7709,68.6203 16.1042,67.287 14.5,66.5C 14.3404,64.847 13.6737,63.5137 12.5,62.5C 12.2064,59.2459 10.873,56.5792 8.5,54.5C 7.25844,52.6112 7.25844,50.6112 8.5,48.5C 9.83333,47.8333 10.8333,46.8333 11.5,45.5C 12.8333,44.1667 14.1667,44.1667 15.5,45.5C 15.7376,47.4044 16.7376,48.7377 18.5,49.5C 18.427,51.0269 19.0937,52.0269 20.5,52.5C 20.59,54.6963 20.9233,56.863 21.5,59C 21.6842,60.3756 22.3509,61.2089 23.5,61.5C 24.3382,61.8417 24.6716,62.5084 24.5,63.5C 24.281,64.675 24.6143,65.675 25.5,66.5C 26.2975,66.0431 26.6309,65.3764 26.5,64.5C 28.9897,61.3743 30.323,57.7076 30.5,53.5C 32.3104,50.855 33.3104,47.855 33.5,44.5C 41.0789,38.0685 43.7456,39.7352 41.5,49.5 Z"/></g>
<g><path style="opacity:0.382" fill="#35090b" d="M 70.5,43.5 C 67.65,43.3639 64.8166,43.0305 62,42.5C 59.0935,43.2265 56.2601,44.2265 53.5,45.5C 56.9503,41.7053 61.2836,40.5386 66.5,42C 68.0581,42.21 69.3915,42.71 70.5,43.5 Z"/></g>
<g><path style="opacity:0.029" fill="#0f0102" d="M 120.5,41.5 C 120.5,42.1667 120.833,42.5 121.5,42.5C 120.486,43.6737 119.153,44.3404 117.5,44.5C 117.158,45.3382 116.492,45.6716 115.5,45.5C 115.5,46.1667 115.167,46.5 114.5,46.5C 114.167,46.5 113.833,46.5 113.5,46.5C 112.833,46.5 112.5,46.1667 112.5,45.5C 114.612,43.2295 117.279,41.8961 120.5,41.5 Z"/></g>
<g><path style="opacity:0.678" fill="#2f0808" d="M 185.5,40.5 C 185.833,40.5 186.167,40.5 186.5,40.5C 186.351,41.552 186.517,42.552 187,43.5C 188.451,41.5359 190.284,40.2026 192.5,39.5C 190.833,41.8333 188.833,43.8333 186.5,45.5C 185.219,48.4474 183.219,50.7807 180.5,52.5C 180.733,50.9382 181.4,49.6049 182.5,48.5C 181.508,48.6716 180.842,48.3382 180.5,47.5C 180.5,44.5 180.5,41.5 180.5,38.5C 182.322,38.8308 183.989,39.4975 185.5,40.5 Z"/></g>
<g><path style="opacity:0.027" fill="#230000" d="M 186.5,39.5 C 187.833,40.1667 187.833,40.1667 186.5,39.5 Z"/></g>
<g><path style="opacity:0.031" fill="#100101" d="M 200.5,36.5 C 200.627,39.4915 200.294,42.4915 199.5,45.5C 199.5,44.8333 199.167,44.5 198.5,44.5C 198.981,40.6509 197.314,38.6509 193.5,38.5C 195.657,37.5933 197.99,36.9267 200.5,36.5 Z"/></g>
<g><path style="opacity:0.243" fill="#2f0908" d="M 41.5,49.5 C 43.7456,39.7352 41.0789,38.0685 33.5,44.5C 34.8432,39.9221 37.8432,38.4221 42.5,40C 43.8477,43.397 43.5144,46.5637 41.5,49.5 Z"/></g>
<g><path style="opacity:0.19" fill="#1d0404" d="M 83.5,40.5 C 83.5,40.8333 83.5,41.1667 83.5,41.5C 83.5,43.1667 83.5,44.8333 83.5,46.5C 82.5,46.5 81.5,46.5 80.5,46.5C 81.8419,44.6391 82.8419,42.6391 83.5,40.5 Z"/></g>
<g><path style="opacity:0.043" fill="#170203" d="M 120.5,41.5 C 125.429,39.8567 129.929,40.8567 134,44.5C 136.13,48.7223 135.964,52.7223 133.5,56.5C 133.672,55.5084 133.338,54.8417 132.5,54.5C 132.5,51.8333 132.5,49.1667 132.5,46.5C 129.185,44.1814 125.518,42.8481 121.5,42.5C 120.833,42.5 120.5,42.1667 120.5,41.5 Z"/></g>
<g><path style="opacity:0.017" fill="#150202" d="M 171.5,29.5 C 171.5,30.1667 171.833,30.5 172.5,30.5C 171.312,31.3636 170.145,32.3636 169,33.5C 168.5,42.1603 168.334,50.8269 168.5,59.5C 168.5,59.8333 168.5,60.1667 168.5,60.5C 166.908,59.3984 166.075,60.065 166,62.5C 165.722,61.5842 165.222,60.9175 164.5,60.5C 164.167,59.1667 163.833,59.1667 163.5,60.5C 159.192,58.6817 154.859,56.8483 150.5,55C 149.16,52.8511 149.827,51.6845 152.5,51.5C 151.294,52.8804 151.627,54.0471 153.5,55C 155.154,55.6077 156.821,56.1077 158.5,56.5C 158.328,55.5084 158.662,54.8417 159.5,54.5C 161.187,55.9176 163.02,57.2509 165,58.5C 165.667,56.1667 165.667,53.8333 165,51.5C 164.184,52.8228 163.017,53.4894 161.5,53.5C 161.5,52.8333 161.167,52.5 160.5,52.5C 164.414,49.4522 164.414,46.2855 160.5,43C 156.848,42.5014 153.182,42.3347 149.5,42.5C 147.192,44.4707 144.858,46.4707 142.5,48.5C 140.677,53.4297 141.344,57.9297 144.5,62C 145.745,62.7914 147.078,63.2914 148.5,63.5C 148.833,64.8333 149.167,64.8333 149.5,63.5C 150.492,63.3284 151.158,63.6618 151.5,64.5C 150.833,64.5 150.5,64.8333 150.5,65.5C 146.013,65.8394 142.513,64.1727 140,60.5C 137.607,54.8561 138.44,49.8561 142.5,45.5C 142.833,46.8333 143.167,46.8333 143.5,45.5C 144.833,45.1667 144.833,44.8333 143.5,44.5C 145.983,41.2586 149.316,39.5919 153.5,39.5C 154.5,40.8333 155.5,40.8333 156.5,39.5C 160.025,39.3459 162.859,40.6792 165,43.5C 165.814,41.0982 165.647,38.7649 164.5,36.5C 163.109,37.6446 161.776,37.6446 160.5,36.5C 161.939,34.4469 163.939,33.4469 166.5,33.5C 167.585,31.4131 169.251,30.0798 171.5,29.5 Z M 166.5,33.5 C 167.97,36.5572 167.303,37.0572 164.5,35C 165.416,34.7216 166.082,34.2216 166.5,33.5 Z M 152.5,51.5 C 154.216,51.6287 155.883,51.962 157.5,52.5C 158.167,53.1667 158.833,53.8333 159.5,54.5C 158.662,54.8417 158.328,55.5084 158.5,56.5C 156.821,56.1077 155.154,55.6077 153.5,55C 151.627,54.0471 151.294,52.8804 152.5,51.5 Z"/></g>
<g><path style="opacity:1" fill="#97131e" d="M 70.5,43.5 C 71.4509,46.1017 72.7842,48.4351 74.5,50.5C 75.4299,54.3998 75.7633,58.3998 75.5,62.5C 74.596,63.209 74.2627,64.209 74.5,65.5C 73.596,66.209 73.2627,67.209 73.5,68.5C 71.8958,69.287 71.2291,70.6203 71.5,72.5C 70.0937,72.9731 69.427,73.9731 69.5,75.5C 68.2101,76.0577 67.3768,77.0577 67,78.5C 65.7832,84.101 65.2832,89.7676 65.5,95.5C 64.5,95.5 63.5,95.5 62.5,95.5C 62.5,93.1667 62.5,90.8333 62.5,88.5C 63.4614,86.7354 63.7947,84.7354 63.5,82.5C 61.901,82.2322 60.5676,82.5655 59.5,83.5C 58.5269,85.9479 58.1936,88.6146 58.5,91.5C 56.9016,89.1433 55.9016,86.4766 55.5,83.5C 52.5251,82.3449 49.8584,80.6782 47.5,78.5C 45.8267,77.657 44.66,76.3237 44,74.5C 43.2266,69.7481 43.3932,65.0815 44.5,60.5C 45.7682,58.0948 46.4349,55.4282 46.5,52.5C 49.1667,50.5 51.5,48.1667 53.5,45.5C 56.2601,44.2265 59.0935,43.2265 62,42.5C 64.8166,43.0305 67.65,43.3639 70.5,43.5 Z M 61.5,52.5 C 62.391,53.1098 63.391,53.4431 64.5,53.5C 66.1675,55.4786 66.8342,57.812 66.5,60.5C 66.5,60.8333 66.5,61.1667 66.5,61.5C 65.9015,64.7788 64.5681,67.7788 62.5,70.5C 61.1147,71.6138 59.6147,72.6138 58,73.5C 57.2828,72.9558 56.7828,72.2891 56.5,71.5C 56.1667,71.5 55.8333,71.5 55.5,71.5C 55.2497,66.4195 55.7497,61.4195 57,56.5C 57.9066,54.3909 59.4066,53.0576 61.5,52.5 Z"/></g>
<g><path style="opacity:1" fill="#9a131f" d="M 121.5,42.5 C 125.518,42.8481 129.185,44.1814 132.5,46.5C 132.5,49.1667 132.5,51.8333 132.5,54.5C 132.5,54.8333 132.5,55.1667 132.5,55.5C 131.094,55.9731 130.427,56.9731 130.5,58.5C 129.094,58.9731 128.427,59.9731 128.5,61.5C 128.5,61.8333 128.5,62.1667 128.5,62.5C 128.167,62.5 127.833,62.5 127.5,62.5C 125.326,62.7497 123.659,63.7497 122.5,65.5C 120.167,65.5 117.833,65.5 115.5,65.5C 115.229,67.3797 115.896,68.713 117.5,69.5C 117.577,70.7498 118.244,71.5831 119.5,72C 121.066,72.765 122.399,72.5983 123.5,71.5C 126.817,70.6946 129.483,68.8612 131.5,66C 133.543,65.36 135.21,65.86 136.5,67.5C 136.5,68.5 136.5,69.5 136.5,70.5C 135.326,71.5137 134.66,72.847 134.5,74.5C 130.898,76.8847 127.065,78.8847 123,80.5C 122.823,84.3563 122.323,88.023 121.5,91.5C 119.89,88.7967 118.89,85.7967 118.5,82.5C 117.264,80.1725 115.264,79.0058 112.5,79C 110.959,77.6288 109.625,76.1288 108.5,74.5C 108.326,67.4648 108.659,60.4648 109.5,53.5C 110.11,52.609 110.443,51.609 110.5,50.5C 112.167,49.5 113.5,48.1667 114.5,46.5C 115.167,46.5 115.5,46.1667 115.5,45.5C 116.492,45.6716 117.158,45.3382 117.5,44.5C 119.153,44.3404 120.486,43.6737 121.5,42.5 Z M 119.5,53.5 C 120.552,53.3505 121.552,53.5172 122.5,54C 121.177,54.8159 120.511,55.9826 120.5,57.5C 119.833,57.5 119.167,57.5 118.5,57.5C 118.833,56.1667 119.167,54.8333 119.5,53.5 Z M 120.5,70.5 C 119.391,70.4431 118.391,70.1098 117.5,69.5C 117.586,68.5041 117.252,67.6708 116.5,67C 118.167,66.3333 119.833,66.3333 121.5,67C 119.273,67.704 118.94,68.8706 120.5,70.5 Z"/></g>
<g><path style="opacity:1" fill="#98131e" d="M 149.5,42.5 C 153.182,42.3347 156.848,42.5014 160.5,43C 164.414,46.2855 164.414,49.4522 160.5,52.5C 159.5,52.5 158.5,52.5 157.5,52.5C 155.883,51.962 154.216,51.6287 152.5,51.5C 149.827,51.6845 149.16,52.8511 150.5,55C 154.859,56.8483 159.192,58.6817 163.5,60.5C 163.5,63.5 163.5,66.5 163.5,69.5C 161.945,73.3865 159.612,76.7198 156.5,79.5C 155.508,79.3284 154.842,79.6618 154.5,80.5C 153.508,80.3284 152.842,80.6618 152.5,81.5C 151.518,84.9619 151.185,88.6286 151.5,92.5C 150.5,92.5 149.5,92.5 148.5,92.5C 148.665,89.4816 148.498,86.4816 148,83.5C 147.617,82.944 147.117,82.6107 146.5,82.5C 143.53,81.2429 140.697,79.5763 138,77.5C 137.018,74.2253 137.851,71.5586 140.5,69.5C 140.833,69.5 141.167,69.5 141.5,69.5C 144.084,69.5688 146.084,70.7355 147.5,73C 149.066,73.765 150.399,73.5983 151.5,72.5C 155.392,71.2577 156.392,68.7577 154.5,65C 153.552,64.5172 152.552,64.3505 151.5,64.5C 151.158,63.6618 150.492,63.3284 149.5,63.5C 149.167,63.5 148.833,63.5 148.5,63.5C 147.078,63.2914 145.745,62.7914 144.5,62C 141.344,57.9297 140.677,53.4297 142.5,48.5C 144.858,46.4707 147.192,44.4707 149.5,42.5 Z"/></g>
<g><path style="opacity:1" fill="#96131e" d="M 212.5,29.5 C 213.265,32.0961 213.599,34.7628 213.5,37.5C 209.155,39.3852 208.821,41.3852 212.5,43.5C 212.5,55.5 212.5,67.5 212.5,79.5C 212.5,80.1667 212.167,80.5 211.5,80.5C 210.677,83.977 210.177,87.6437 210,91.5C 209.586,91.9574 209.086,92.2907 208.5,92.5C 206.659,85.083 204.993,77.7497 203.5,70.5C 203.334,62.4931 203.5,54.4931 204,46.5C 205.698,45.4711 206.532,43.9711 206.5,42C 204.866,38.7474 204.199,35.2474 204.5,31.5C 206.82,29.7739 209.487,29.1072 212.5,29.5 Z"/></g>
<g><path style="opacity:0.617" fill="#5d0b12" d="M 177.5,42.5 C 177.833,42.5 178.167,42.5 178.5,42.5C 178.182,47.0323 178.515,51.3656 179.5,55.5C 179.44,56.0431 179.107,56.3764 178.5,56.5C 177.507,51.8804 177.173,47.2137 177.5,42.5 Z"/></g>
<g><path style="opacity:0.714" fill="#450c0e" d="M 15.5,45.5 C 17.2624,46.2623 18.2624,47.5956 18.5,49.5C 16.7376,48.7377 15.7376,47.4044 15.5,45.5 Z"/></g>
<g><path style="opacity:0.255" fill="#240506" d="M 11.5,45.5 C 10.8333,46.8333 9.83333,47.8333 8.5,48.5C 8.5,46.5 9.5,45.5 11.5,45.5 Z"/></g>
<g><path style="opacity:0.431" fill="#340909" d="M 245.5,31.5 C 245.167,31.5 244.833,31.5 244.5,31.5C 241.49,28.7244 238.656,29.0577 236,32.5C 235.333,47.5 235.333,62.5 236,77.5C 236.366,79.4517 237.199,81.1184 238.5,82.5C 236.589,82.4257 235.422,81.4257 235,79.5C 234.622,71.1588 234.122,62.8255 233.5,54.5C 233.807,46.9814 234.307,39.3148 235,31.5C 237.559,28.6508 240.726,27.8175 244.5,29C 245.252,29.6708 245.586,30.5041 245.5,31.5 Z"/></g>
<g><path style="opacity:0.557" fill="#3c0c0d" d="M 33.5,44.5 C 33.3104,47.855 32.3104,50.855 30.5,53.5C 30.5275,50.0836 31.5275,47.0836 33.5,44.5 Z"/></g>
<g><path style="opacity:0.698" fill="#640e15" d="M 70.5,43.5 C 72.5869,44.5846 73.9202,46.2512 74.5,48.5C 74.5,49.1667 74.5,49.8333 74.5,50.5C 72.7842,48.4351 71.4509,46.1017 70.5,43.5 Z"/></g>
<g><path style="opacity:0.02" fill="#180303" d="M 78.5,47.5 C 77.1667,50.1667 77.1667,52.8333 78.5,55.5C 77.4138,55.62 76.7472,56.2867 76.5,57.5C 76.5427,58.4164 76.8761,59.0831 77.5,59.5C 77.7678,61.099 77.4345,62.4324 76.5,63.5C 76.5,62.8333 76.1667,62.5 75.5,62.5C 75.7633,58.3998 75.4299,54.3998 74.5,50.5C 74.5,49.8333 74.5,49.1667 74.5,48.5C 75.1174,48.6107 75.6174,48.944 76,49.5C 76.4169,48.244 77.2502,47.5774 78.5,47.5 Z"/></g>
<g><path style="opacity:0.431" fill="#340b09" d="M 53.5,45.5 C 51.5,48.1667 49.1667,50.5 46.5,52.5C 47.8333,49.1667 50.1667,46.8333 53.5,45.5 Z"/></g>
<g><path style="opacity:0.008" fill="#220705" d="M 195.5,49.5 C 195.5,50.1667 195.5,50.8333 195.5,51.5C 194.5,52.1667 193.5,52.8333 192.5,53.5C 192.738,51.5956 193.738,50.2623 195.5,49.5 Z"/></g>
<g><path style="opacity:0.361" fill="#360a0c" d="M 18.5,49.5 C 19.9063,49.9731 20.573,50.9731 20.5,52.5C 19.0937,52.0269 18.427,51.0269 18.5,49.5 Z"/></g>
<g><path style="opacity:0.322" fill="#320909" d="M 41.5,49.5 C 40.3398,53.6472 39.0065,57.6472 37.5,61.5C 37.4591,56.9555 38.7925,52.9555 41.5,49.5 Z"/></g>
<g><path style="opacity:0.504" fill="#34070a" d="M 159.5,54.5 C 158.833,53.8333 158.167,53.1667 157.5,52.5C 158.5,52.5 159.5,52.5 160.5,52.5C 161.167,52.5 161.5,52.8333 161.5,53.5C 163.017,53.4894 164.184,52.8228 165,51.5C 165.667,53.8333 165.667,56.1667 165,58.5C 163.02,57.2509 161.187,55.9176 159.5,54.5 Z"/></g>
<g><path style="opacity:0.522" fill="#360a0a" d="M 229.5,31.5 C 229.167,31.5 228.833,31.5 228.5,31.5C 225.49,28.7244 222.656,29.0577 220,32.5C 219.333,47.8333 219.333,63.1667 220,78.5C 220.662,79.9839 221.496,81.3172 222.5,82.5C 220.983,82.4894 219.816,81.8228 219,80.5C 218.501,75.1771 218.334,69.8437 218.5,64.5C 218.5,63.8333 218.5,63.1667 218.5,62.5C 217.104,52.1914 217.271,41.8581 219,31.5C 221.559,28.6508 224.726,27.8175 228.5,29C 229.252,29.6708 229.586,30.5041 229.5,31.5 Z"/></g>
<g><path style="opacity:0.271" fill="#220605" d="M 61.5,52.5 C 59.4066,53.0576 57.9066,54.3909 57,56.5C 55.7497,61.4195 55.2497,66.4195 55.5,71.5C 54.353,67.3537 54.1864,63.0204 55,58.5C 55.2556,54.2604 57.4223,52.2604 61.5,52.5 Z"/></g>
<g><path style="opacity:0.416" fill="#340c0b" d="M 212.5,43.5 C 213.926,45.6789 214.592,48.1789 214.5,51C 214.44,59.7492 214.273,68.5825 214,77.5C 213.722,78.4158 213.222,79.0825 212.5,79.5C 212.5,67.5 212.5,55.5 212.5,43.5 Z"/></g>
<g><path style="opacity:0.494" fill="#2d0a08" d="M 20.5,52.5 C 21.9459,55.2542 22.9459,58.2542 23.5,61.5C 22.3509,61.2089 21.6842,60.3756 21.5,59C 20.9233,56.863 20.59,54.6963 20.5,52.5 Z"/></g>
<g><path style="opacity:0.486" fill="#43090c" d="M 64.5,53.5 C 65.4959,53.4142 66.3292,53.7476 67,54.5C 67.7891,56.7116 67.6225,58.7116 66.5,60.5C 66.8342,57.812 66.1675,55.4786 64.5,53.5 Z"/></g>
<g><path style="opacity:0.141" fill="#130103" d="M 119.5,53.5 C 120.568,52.5655 121.901,52.2322 123.5,52.5C 123.727,54.9328 122.727,56.5994 120.5,57.5C 120.511,55.9826 121.177,54.8159 122.5,54C 121.552,53.5172 120.552,53.3505 119.5,53.5 Z"/></g>
<g><path style="opacity:0.035" fill="#230805" d="M 191.5,54.5 C 191.5,55.1667 191.5,55.8333 191.5,56.5C 190.833,56.5 190.5,56.8333 190.5,57.5C 190.167,57.5 189.833,57.5 189.5,57.5C 189.427,55.9731 190.094,54.9731 191.5,54.5 Z"/></g>
<g><path style="opacity:0.255" fill="#270806" d="M 8.5,54.5 C 10.873,56.5792 12.2064,59.2459 12.5,62.5C 10.659,60.1515 9.32567,57.4848 8.5,54.5 Z"/></g>
<g><path style="opacity:0.667" fill="#3c0a0c" d="M 30.5,53.5 C 30.323,57.7076 28.9897,61.3743 26.5,64.5C 27.4624,60.6052 28.7957,56.9385 30.5,53.5 Z"/></g>
<g><path style="opacity:0.006" fill="#160203" d="M 132.5,55.5 C 132.5,56.1667 132.833,56.5 133.5,56.5C 133.25,58.674 132.25,60.3406 130.5,61.5C 130.167,60.1667 129.833,60.1667 129.5,61.5C 129.167,61.5 128.833,61.5 128.5,61.5C 128.427,59.9731 129.094,58.9731 130.5,58.5C 130.427,56.9731 131.094,55.9731 132.5,55.5 Z"/></g>
<g><path style="opacity:0.022" fill="#0e0101" d="M 108.5,50.5 C 108.833,51.8333 109.167,51.8333 109.5,50.5C 109.833,50.5 110.167,50.5 110.5,50.5C 110.443,51.609 110.11,52.609 109.5,53.5C 109.167,53.5 108.833,53.5 108.5,53.5C 107.167,53.8333 107.167,54.1667 108.5,54.5C 108.672,55.4916 108.338,56.1583 107.5,56.5C 106.356,55.8174 106.356,56.1507 107.5,57.5C 107.5,58.8333 107.5,60.1667 107.5,61.5C 106.596,62.209 106.263,63.209 106.5,64.5C 105.833,65.5 105.167,66.5 104.5,67.5C 103.818,61.2341 105.151,55.5675 108.5,50.5 Z"/></g>
<g><path style="opacity:0.122" fill="#220604" d="M 119.5,53.5 C 119.167,54.8333 118.833,56.1667 118.5,57.5C 119.167,57.5 119.833,57.5 120.5,57.5C 119.713,59.1042 118.38,59.7709 116.5,59.5C 116.025,56.6874 117.025,54.6874 119.5,53.5 Z"/></g>
<g><path style="opacity:0.404" fill="#32080a" d="M 46.5,52.5 C 46.4349,55.4282 45.7682,58.0948 44.5,60.5C 44.2938,57.5049 44.9605,54.8383 46.5,52.5 Z"/></g>
<g><path style="opacity:0.015" fill="#140102" d="M 81.5,55.5 C 83.4364,59.7147 84.1031,64.3814 83.5,69.5C 82.596,70.209 82.2627,71.209 82.5,72.5C 81.5097,67.9657 80.5097,63.2991 79.5,58.5C 78.8165,58.8627 78.1499,59.1961 77.5,59.5C 78.5893,57.8829 80.256,57.0496 82.5,57C 81.944,56.6174 81.6107,56.1174 81.5,55.5 Z"/></g>
<g><path style="opacity:0.495" fill="#340b0a" d="M 228.5,31.5 C 228.833,31.5 229.167,31.5 229.5,31.5C 229.798,47.5878 229.798,63.5878 229.5,79.5C 229.167,79.5 228.833,79.5 228.5,79.5C 228.5,63.5 228.5,47.5 228.5,31.5 Z"/></g>
<g><path style="opacity:0.031" fill="#170303" d="M 104.5,38.5 C 104.196,39.1499 103.863,39.8165 103.5,40.5C 106.227,44.593 106.06,48.593 103,52.5C 102.667,55.8333 102.333,59.1667 102,62.5C 100.556,64.1554 98.7224,64.822 96.5,64.5C 96.5,65.5 96.5,66.5 96.5,67.5C 99.1967,66.3697 101.863,66.3697 104.5,67.5C 104.167,68.1667 103.833,68.8333 103.5,69.5C 102.167,69.5 100.833,69.5 99.5,69.5C 99.1667,69.5 98.8333,69.5 98.5,69.5C 97.5,68.1667 96.5,68.1667 95.5,69.5C 95.1667,69.5 94.8333,69.5 94.5,69.5C 93.5509,64.2599 93.2175,58.9265 93.5,53.5C 94.5,53.5 95.5,53.5 96.5,53.5C 96.5387,56.3214 97.2054,58.9881 98.5,61.5C 99.3236,58.2152 99.8236,54.8818 100,51.5C 103.763,49.1637 104.263,46.497 101.5,43.5C 101.5,43.1667 101.5,42.8333 101.5,42.5C 102.833,42.1667 102.833,41.8333 101.5,41.5C 101.5,39.5 102.5,38.5 104.5,38.5 Z M 94.5,56.5 C 95.3058,57.9972 95.9724,59.6639 96.5,61.5C 96.1924,62.3081 95.6924,62.9747 95,63.5C 94.5034,61.1902 94.3367,58.8568 94.5,56.5 Z"/></g>
<g><path style="opacity:0.271" fill="#2d0808" d="M 12.5,62.5 C 13.6737,63.5137 14.3404,64.847 14.5,66.5C 12.8958,65.713 12.2291,64.3797 12.5,62.5 Z"/></g>
<g><path style="opacity:0.678" fill="#420b0e" d="M 37.5,61.5 C 36.6018,66.534 34.9351,71.2006 32.5,75.5C 33.0114,70.2907 34.678,65.624 37.5,61.5 Z"/></g>
<g><path style="opacity:0.345" fill="#2d0807" d="M 24.5,63.5 C 25.1667,63.8333 25.8333,64.1667 26.5,64.5C 26.6309,65.3764 26.2975,66.0431 25.5,66.5C 24.6143,65.675 24.281,64.675 24.5,63.5 Z"/></g>
<g><path style="opacity:0.761" fill="#470d0f" d="M 163.5,60.5 C 163.833,60.5 164.167,60.5 164.5,60.5C 165.588,63.5558 165.588,66.5558 164.5,69.5C 164.167,69.5 163.833,69.5 163.5,69.5C 163.5,66.5 163.5,63.5 163.5,60.5 Z"/></g>
<g><path style="opacity:0.576" fill="#3f0b0d" d="M 244.5,31.5 C 244.833,31.5 245.167,31.5 245.5,31.5C 245.215,46.706 245.549,61.8727 246.5,77C 246.613,78.6991 245.947,79.8658 244.5,80.5C 244.5,64.1667 244.5,47.8333 244.5,31.5 Z"/></g>
<g><path style="opacity:0.542" fill="#36070b" d="M 200.5,36.5 C 202.1,37.9516 203.1,39.7849 203.5,42C 202.096,44.6514 201.096,47.4847 200.5,50.5C 201.21,53.7992 201.543,57.1326 201.5,60.5C 200.325,60.281 199.325,60.6143 198.5,61.5C 198.624,62.1067 198.957,62.44 199.5,62.5C 201.218,64.9262 201.718,67.5929 201,70.5C 196.896,66.9046 193.396,62.9046 190.5,58.5C 190.5,58.1667 190.5,57.8333 190.5,57.5C 191.167,57.5 191.5,57.1667 191.5,56.5C 193.587,55.4154 194.92,53.7488 195.5,51.5C 197.382,50.779 197.715,49.779 196.5,48.5C 196.229,46.6203 196.896,45.287 198.5,44.5C 198.461,46.2239 198.794,46.5573 199.5,45.5C 200.294,42.4915 200.627,39.4915 200.5,36.5 Z"/></g>
<g><path style="opacity:0.024" fill="#170202" d="M 75.5,62.5 C 76.1667,62.5 76.5,62.8333 76.5,63.5C 76.9465,66.0101 76.2798,68.0101 74.5,69.5C 74.5,68.8333 74.1667,68.5 73.5,68.5C 73.2627,67.209 73.596,66.209 74.5,65.5C 74.2627,64.209 74.596,63.209 75.5,62.5 Z"/></g>
<g><path style="opacity:0.906" fill="#780f18" d="M 108.5,53.5 C 108.833,53.5 109.167,53.5 109.5,53.5C 108.659,60.4648 108.326,67.4648 108.5,74.5C 107.515,70.3656 107.182,66.0323 107.5,61.5C 107.5,60.1667 107.5,58.8333 107.5,57.5C 107.5,57.1667 107.5,56.8333 107.5,56.5C 108.338,56.1583 108.672,55.4916 108.5,54.5C 108.5,54.1667 108.5,53.8333 108.5,53.5 Z"/></g>
<g><path style="opacity:0.38" fill="#200505" d="M 129.5,61.5 C 129.833,61.5 130.167,61.5 130.5,61.5C 134.216,62.7043 137.549,64.7043 140.5,67.5C 139.833,68.1667 139.167,68.8333 138.5,69.5C 137.833,69.5 137.5,69.8333 137.5,70.5C 137.167,70.5 136.833,70.5 136.5,70.5C 136.5,69.5 136.5,68.5 136.5,67.5C 135.21,65.86 133.543,65.36 131.5,66C 129.483,68.8612 126.817,70.6946 123.5,71.5C 122.791,70.596 121.791,70.2627 120.5,70.5C 118.94,68.8706 119.273,67.704 121.5,67C 119.833,66.3333 118.167,66.3333 116.5,67C 117.252,67.6708 117.586,68.5041 117.5,69.5C 115.896,68.713 115.229,67.3797 115.5,65.5C 117.833,65.5 120.167,65.5 122.5,65.5C 123.659,63.7497 125.326,62.7497 127.5,62.5C 127.833,63.8333 128.167,63.8333 128.5,62.5C 129.167,62.5 129.5,62.1667 129.5,61.5 Z"/></g>
<g><path style="opacity:0.375" fill="#37060a" d="M 168.5,59.5 C 169.487,64.3054 169.821,69.3054 169.5,74.5C 168.566,73.4324 168.232,72.099 168.5,70.5C 167.167,67.1667 167.167,63.8333 168.5,60.5C 168.5,60.1667 168.5,59.8333 168.5,59.5 Z"/></g>
<g><path style="opacity:0.038" fill="#190000" d="M 218.5,62.5 C 218.5,63.1667 218.5,63.8333 218.5,64.5C 217.834,68.0208 217.167,71.6875 216.5,75.5C 215.34,71.5411 215.173,67.5411 216,63.5C 216.671,62.7476 217.504,62.4142 218.5,62.5 Z"/></g>
<g><path style="opacity:0.271" fill="#240505" d="M 14.5,66.5 C 16.1042,67.287 16.7709,68.6203 16.5,70.5C 15.3263,69.4863 14.6596,68.153 14.5,66.5 Z"/></g>
<g><path style="opacity:0.486" fill="#340a0a" d="M 66.5,61.5 C 67.341,65.5749 66.0076,68.5749 62.5,70.5C 64.5681,67.7788 65.9015,64.7788 66.5,61.5 Z"/></g>
<g><path style="opacity:0.027" fill="#180303" d="M 151.5,64.5 C 152.552,64.3505 153.552,64.5172 154.5,65C 156.392,68.7577 155.392,71.2577 151.5,72.5C 150.399,73.5983 149.066,73.765 147.5,73C 146.084,70.7355 144.084,69.5688 141.5,69.5C 144.258,68.0335 143.925,67.3668 140.5,67.5C 141.601,66.4017 142.934,66.235 144.5,67C 146.344,68.1821 148.177,69.3488 150,70.5C 150.902,70.2568 151.735,69.9234 152.5,69.5C 152.833,70.8333 153.167,70.8333 153.5,69.5C 154.833,68.5 154.833,67.5 153.5,66.5C 153.167,65.1667 152.833,65.1667 152.5,66.5C 151.508,66.6716 150.842,66.3382 150.5,65.5C 151.167,65.5 151.5,65.1667 151.5,64.5 Z"/></g>
<g><path style="opacity:0.063" fill="#270109" d="M 56.5,71.5 C 57.6653,69.5839 59.332,68.7506 61.5,69C 60.3474,70.883 58.6807,71.7163 56.5,71.5 Z"/></g>
<g><path style="opacity:0.455" fill="#370a0c" d="M 73.5,68.5 C 73.5,69.1667 73.5,69.8333 73.5,70.5C 72.8333,71.1667 72.1667,71.8333 71.5,72.5C 71.2291,70.6203 71.8958,69.287 73.5,68.5 Z"/></g>
<g><path style="opacity:0.686" fill="#440c0f" d="M 16.5,70.5 C 18.6545,72.6174 19.6545,75.284 19.5,78.5C 17.7329,76.2084 16.7329,73.5418 16.5,70.5 Z"/></g>
<g><path style="opacity:0.023" fill="#150202" d="M 204.5,31.5 C 204.199,35.2474 204.866,38.7474 206.5,42C 206.532,43.9711 205.698,45.4711 204,46.5C 203.5,54.4931 203.334,62.4931 203.5,70.5C 204.993,77.7497 206.659,85.083 208.5,92.5C 209.086,92.2907 209.586,91.9574 210,91.5C 210.177,87.6437 210.677,83.977 211.5,80.5C 211.174,83.6065 212.341,85.9398 215,87.5C 215.667,90.8333 215.667,94.1667 215,97.5C 214.329,98.2524 213.496,98.5858 212.5,98.5C 214.901,94.9513 215.067,91.2847 213,87.5C 212.777,92.3381 211.277,96.6714 208.5,100.5C 207.355,99.2073 207.689,98.0407 209.5,97C 207.802,97.4969 206.135,97.3302 204.5,96.5C 203.933,99.2121 203.599,101.879 203.5,104.5C 202.264,103.754 200.93,103.421 199.5,103.5C 201.226,101.18 201.893,98.5133 201.5,95.5C 203.199,95.6602 204.866,95.4935 206.5,95C 206,94.5 205.5,94 205,93.5C 205.11,88.8244 204.11,84.4911 202,80.5C 200.919,84.0923 199.919,87.7589 199,91.5C 197.274,92.5762 195.441,92.7429 193.5,92C 191.934,89.0696 191.1,85.9029 191,82.5C 188.055,78.9334 184.889,75.6001 181.5,72.5C 180.898,76.9983 179.731,81.3316 178,85.5C 177.667,89.8333 177.333,94.1667 177,98.5C 174.667,101.167 172.333,101.167 170,98.5C 169.139,88.7676 167.972,79.101 166.5,69.5C 167.167,69.8333 167.833,70.1667 168.5,70.5C 168.232,72.099 168.566,73.4324 169.5,74.5C 171.731,81.8817 173.064,89.5483 173.5,97.5C 173.833,97.3333 174.167,97.1667 174.5,97C 175.307,91.917 175.807,86.7503 176,81.5C 176.667,80.8333 177.333,80.1667 178,79.5C 178.499,75.5138 178.666,71.5138 178.5,67.5C 179.873,67.3433 181.207,67.51 182.5,68C 185.076,71.0628 187.409,74.2295 189.5,77.5C 190.833,78.1667 191.833,79.1667 192.5,80.5C 194.388,82.9878 195.055,85.9878 194.5,89.5C 195.5,89.5 196.5,89.5 197.5,89.5C 197.335,86.4816 197.502,83.4816 198,80.5C 200.621,78.2284 201.121,75.5618 199.5,72.5C 195.862,68.5259 192.195,64.5259 188.5,60.5C 189.338,60.1583 189.672,59.4916 189.5,58.5C 189.833,58.5 190.167,58.5 190.5,58.5C 193.396,62.9046 196.896,66.9046 201,70.5C 201.718,67.5929 201.218,64.9262 199.5,62.5C 198.957,62.44 198.624,62.1067 198.5,61.5C 199.325,60.6143 200.325,60.281 201.5,60.5C 201.543,57.1326 201.21,53.7992 200.5,50.5C 201.096,47.4847 202.096,44.6514 203.5,42C 203.1,39.7849 202.1,37.9516 200.5,36.5C 201.189,35.2264 202.023,35.2264 203,36.5C 203.198,34.6183 203.698,32.9516 204.5,31.5 Z M 182.5,70.5 C 181.86,68.668 180.86,68.3347 179.5,69.5C 180.325,70.3857 181.325,70.719 182.5,70.5 Z"/></g>
<g><path style="opacity:0.459" fill="#4e0d11" d="M 62.5,70.5 C 62.5,71.5 62.5,72.5 62.5,73.5C 60.9397,73.5191 59.4397,73.8524 58,74.5C 56.2509,74.2517 55.4176,73.2517 55.5,71.5C 55.8333,71.5 56.1667,71.5 56.5,71.5C 56.7828,72.2891 57.2828,72.9558 58,73.5C 59.6147,72.6138 61.1147,71.6138 62.5,70.5 Z"/></g>
<g><path style="opacity:0.043" fill="#2b0807" d="M 71.5,72.5 C 71.5,73.1667 71.5,73.8333 71.5,74.5C 70.8333,74.8333 70.1667,75.1667 69.5,75.5C 69.427,73.9731 70.0937,72.9731 71.5,72.5 Z"/></g>
<g><path style="opacity:0.031" fill="#250000" d="M 41.5,77.5 C 41.8966,76.475 42.5632,76.3083 43.5,77C 42.9056,77.4643 42.2389,77.631 41.5,77.5 Z"/></g>
<g><path style="opacity:1" fill="#3c070c" d="M 82.5,72.5 C 82.5,73.1667 82.8333,73.5 83.5,73.5C 83.3284,74.4916 83.6618,75.1583 84.5,75.5C 84.5,76.1667 84.5,76.8333 84.5,77.5C 84.8333,78.5 85.5,79.1667 86.5,79.5C 87.5077,81.3386 89.0077,82.6719 91,83.5C 91.3333,86.1667 91.6667,88.8333 92,91.5C 95.1558,94.3988 97.8225,94.0655 100,90.5C 100,87.8333 100,85.1667 100,82.5C 102.469,79.9673 105.302,78.4673 108.5,78C 109.916,80.2645 111.916,81.4312 114.5,81.5C 116.183,85.205 117.016,89.205 117,93.5C 120.732,95.2567 123.399,94.2567 125,90.5C 125.498,87.5184 125.665,84.5184 125.5,81.5C 128.852,80.9916 131.852,79.6582 134.5,77.5C 136.361,78.5283 137.695,80.0283 138.5,82C 140.677,83.2022 143.011,83.7022 145.5,83.5C 146.252,86.7473 146.752,90.0806 147,93.5C 150.159,96.3407 152.492,95.674 154,91.5C 154.248,88.0806 154.748,84.7473 155.5,81.5C 155.5,80.8333 155.167,80.5 154.5,80.5C 154.842,79.6618 155.508,79.3284 156.5,79.5C 156.5,80.1667 156.833,80.5 157.5,80.5C 161.217,79.0802 163.55,76.4135 164.5,72.5C 164.5,72.1667 164.5,71.8333 164.5,71.5C 165.167,70.8333 165.833,70.1667 166.5,69.5C 167.972,79.101 169.139,88.7676 170,98.5C 172.333,101.167 174.667,101.167 177,98.5C 177.333,94.1667 177.667,89.8333 178,85.5C 179.731,81.3316 180.898,76.9983 181.5,72.5C 184.889,75.6001 188.055,78.9334 191,82.5C 191.1,85.9029 191.934,89.0696 193.5,92C 195.441,92.7429 197.274,92.5762 199,91.5C 199.919,87.7589 200.919,84.0923 202,80.5C 204.11,84.4911 205.11,88.8244 205,93.5C 205.5,94 206,94.5 206.5,95C 204.866,95.4935 203.199,95.6602 201.5,95.5C 201.893,98.5133 201.226,101.18 199.5,103.5C 192.265,105.692 184.931,107.025 177.5,107.5C 173.755,108.181 170.089,109.181 166.5,110.5C 164.023,109.88 164.023,108.88 166.5,107.5C 166.167,107.167 165.833,106.833 165.5,106.5C 160.23,107.988 154.897,108.821 149.5,109C 152.718,108.1 155.718,106.933 158.5,105.5C 160.5,105.5 162.5,105.5 164.5,105.5C 164.5,104.167 164.5,102.833 164.5,101.5C 162.453,101.489 160.453,101.156 158.5,100.5C 155.658,101.815 152.658,102.815 149.5,103.5C 150.557,103.906 151.891,103.906 153.5,103.5C 153.5,104.5 153.5,105.5 153.5,106.5C 149.382,106.53 145.382,107.197 141.5,108.5C 141.582,106.748 140.749,105.748 139,105.5C 129.72,106.875 120.887,109.209 112.5,112.5C 110.898,114.074 108.898,114.741 106.5,114.5C 103.482,114.704 100.482,115.037 97.5,115.5C 97.5,116.5 97.5,117.5 97.5,118.5C 94.6717,117.503 92.005,117.503 89.5,118.5C 84.496,118.889 79.496,119.389 74.5,120C 70.8368,120.572 67.5035,121.738 64.5,123.5C 57.9771,126.23 51.3104,128.563 44.5,130.5C 41.1501,130.335 37.8168,130.502 34.5,131C 33.5842,131.278 32.9175,131.778 32.5,132.5C 29.5049,132.294 26.8383,132.96 24.5,134.5C 23.0813,135.451 21.4147,135.784 19.5,135.5C 17.8008,135.66 16.1341,135.494 14.5,135C 15.7111,133.887 15.7111,132.72 14.5,131.5C 16.578,128.797 18.7446,126.13 21,123.5C 20.6446,122.041 20.8112,120.707 21.5,119.5C 23.2964,117.1 25.6298,115.433 28.5,114.5C 32.0432,111.494 36.0432,108.994 40.5,107C 46.1323,105.789 51.4657,103.789 56.5,101C 55.5,100.667 54.5,100.333 53.5,100C 57.3007,96.5073 61.634,95.5073 66.5,97C 67.4533,95.0448 68.7866,93.3782 70.5,92C 74.3163,90.5906 77.9829,88.924 81.5,87C 79.8659,86.5065 78.1992,86.3398 76.5,86.5C 76.762,85.0222 76.4287,83.6888 75.5,82.5C 73.7721,84.2255 71.7721,85.5589 69.5,86.5C 68.9426,84.2825 68.9426,81.9491 69.5,79.5C 69.5,78.8333 69.5,78.1667 69.5,77.5C 70.9063,77.0269 71.573,76.0269 71.5,74.5C 73.1042,73.713 73.7709,72.3797 73.5,70.5C 74.1667,70.5 74.5,70.1667 74.5,69.5C 76.2798,68.0101 76.9465,66.0101 76.5,63.5C 77.4345,62.4324 77.7678,61.099 77.5,59.5C 78.1499,59.1961 78.8165,58.8627 79.5,58.5C 80.5097,63.2991 81.5097,67.9657 82.5,72.5 Z M 158.5,105.5 C 157.022,105.762 155.689,105.429 154.5,104.5C 157.137,101.314 160.137,100.814 163.5,103C 161.825,103.985 160.158,104.819 158.5,105.5 Z"/></g>
<g><path style="opacity:0.031" fill="#1a0303" d="M 163.5,69.5 C 163.833,69.5 164.167,69.5 164.5,69.5C 164.5,70.1667 164.5,70.8333 164.5,71.5C 163.167,71.8333 163.167,72.1667 164.5,72.5C 163.55,76.4135 161.217,79.0802 157.5,80.5C 156.833,80.5 156.5,80.1667 156.5,79.5C 159.612,76.7198 161.945,73.3865 163.5,69.5 Z"/></g>
<g><path style="opacity:0.82" fill="#5a0c13" d="M 94.5,69.5 C 94.8333,69.5 95.1667,69.5 95.5,69.5C 96.5,69.5 97.5,69.5 98.5,69.5C 98.8333,69.5 99.1667,69.5 99.5,69.5C 97.5828,71.8507 95.9161,71.8507 94.5,69.5 Z"/></g>
<g><path style="opacity:0.169" fill="#230305" d="M 232.5,80.5 C 234.048,80.8212 234.715,81.8212 234.5,83.5C 229.363,84.7192 228.696,83.7192 232.5,80.5 Z"/></g>
<g><path style="opacity:0.998" fill="#39080b" d="M 46.5,80.5 C 47.8873,83.0401 50.054,84.7067 53,85.5C 53.8432,91.9808 51.1765,93.9808 45,91.5C 43.5,91.6667 42,91.8333 40.5,92C 39.944,92.3826 39.6107,92.8826 39.5,93.5C 38.4863,94.6737 37.153,95.3404 35.5,95.5C 31.8463,94.8594 30.8463,92.8594 32.5,89.5C 37.2038,87.6361 40.8704,84.4695 43.5,80C 44.7494,79.2599 45.7494,79.4265 46.5,80.5 Z"/></g>
<g><path style="opacity:0.034" fill="#120102" d="M 69.5,75.5 C 69.5,76.1667 69.5,76.8333 69.5,77.5C 68.1667,78.1667 68.1667,78.8333 69.5,79.5C 68.9426,81.9491 68.9426,84.2825 69.5,86.5C 71.7721,85.5589 73.7721,84.2255 75.5,82.5C 76.4287,83.6888 76.762,85.0222 76.5,86.5C 78.1992,86.3398 79.8659,86.5065 81.5,87C 77.9829,88.924 74.3163,90.5906 70.5,92C 68.7866,93.3782 67.4533,95.0448 66.5,97C 61.634,95.5073 57.3007,96.5073 53.5,100C 54.5,100.333 55.5,100.667 56.5,101C 51.4657,103.789 46.1323,105.789 40.5,107C 36.0432,108.994 32.0432,111.494 28.5,114.5C 31.1544,112.175 33.4877,109.508 35.5,106.5C 38.3405,104.914 41.0072,103.08 43.5,101C 45.5,101 47.5,101 49.5,101C 52.328,98.7519 55.328,96.7519 58.5,95C 56.7183,94.1859 55.2183,93.0192 54,91.5C 53.2797,93.1124 53.4464,94.6124 54.5,96C 52.212,96.4175 50.212,95.7509 48.5,94C 45.5184,93.502 42.5184,93.3354 39.5,93.5C 39.6107,92.8826 39.944,92.3826 40.5,92C 42,91.8333 43.5,91.6667 45,91.5C 51.1765,93.9808 53.8432,91.9808 53,85.5C 50.054,84.7067 47.8873,83.0401 46.5,80.5C 47.3382,80.1583 47.6716,79.4916 47.5,78.5C 49.8584,80.6782 52.5251,82.3449 55.5,83.5C 55.5,86.5 55.5,89.5 55.5,92.5C 56.791,92.7373 57.791,92.404 58.5,91.5C 58.1936,88.6146 58.5269,85.9479 59.5,83.5C 60.5,83.5 61.5,83.5 62.5,83.5C 62.5,85.1667 62.5,86.8333 62.5,88.5C 62.5,90.8333 62.5,93.1667 62.5,95.5C 63.5,95.5 64.5,95.5 65.5,95.5C 65.2832,89.7676 65.7832,84.101 67,78.5C 67.3768,77.0577 68.2101,76.0577 69.5,75.5 Z M 67.5,87.5 C 69.604,87.2011 71.604,87.5344 73.5,88.5C 71.5781,89.711 69.7448,91.0443 68,92.5C 67.5065,90.8659 67.3398,89.1992 67.5,87.5 Z"/></g>
<g><path style="opacity:0.094" fill="#170102" d="M 228.5,79.5 C 228.833,79.5 229.167,79.5 229.5,79.5C 228.009,84.4446 227.009,89.4446 226.5,94.5C 226.5,90.1667 226.5,85.8333 226.5,81.5C 227.5,81.1667 228.167,80.5 228.5,79.5 Z"/></g>
<g><path style="opacity:0.388" fill="#3b060c" d="M 59.5,83.5 C 60.5676,82.5655 61.901,82.2322 63.5,82.5C 63.7947,84.7354 63.4614,86.7354 62.5,88.5C 62.5,86.8333 62.5,85.1667 62.5,83.5C 61.5,83.5 60.5,83.5 59.5,83.5 Z"/></g>
<g><path style="opacity:0.404" fill="#310b09" d="M 28.5,80.5 C 27.7002,84.3896 27.3668,88.2229 27.5,92C 26.0563,92.7805 24.723,92.6139 23.5,91.5C 22.5934,88.5788 22.2601,85.5788 22.5,82.5C 24.0935,85.0609 25.0935,88.0609 25.5,91.5C 26.3236,88.2152 26.8236,84.8818 27,81.5C 27.3826,80.944 27.8826,80.6107 28.5,80.5 Z"/></g>
<g><path style="opacity:0.855" fill="#550a12" d="M 55.5,83.5 C 55.9016,86.4766 56.9016,89.1433 58.5,91.5C 57.791,92.404 56.791,92.7373 55.5,92.5C 55.5,89.5 55.5,86.5 55.5,83.5 Z"/></g>
<g><path style="opacity:0.104" fill="#140202" d="M 107.5,61.5 C 107.182,66.0323 107.515,70.3656 108.5,74.5C 109.625,76.1288 110.959,77.6288 112.5,79C 115.264,79.0058 117.264,80.1725 118.5,82.5C 118.5,85.8333 118.5,89.1667 118.5,92.5C 119.791,92.7373 120.791,92.404 121.5,91.5C 122.323,88.023 122.823,84.3563 123,80.5C 127.065,78.8847 130.898,76.8847 134.5,74.5C 134.66,72.847 135.326,71.5137 136.5,70.5C 136.833,71.8333 137.167,71.8333 137.5,70.5C 138.167,70.5 138.5,70.1667 138.5,69.5C 139.167,69.5 139.833,69.5 140.5,69.5C 137.851,71.5586 137.018,74.2253 138,77.5C 140.697,79.5763 143.53,81.2429 146.5,82.5C 145.833,82.5 145.5,82.8333 145.5,83.5C 143.011,83.7022 140.677,83.2022 138.5,82C 137.695,80.0283 136.361,78.5283 134.5,77.5C 131.852,79.6582 128.852,80.9916 125.5,81.5C 125.665,84.5184 125.498,87.5184 125,90.5C 123.399,94.2567 120.732,95.2567 117,93.5C 117.016,89.205 116.183,85.205 114.5,81.5C 111.916,81.4312 109.916,80.2645 108.5,78C 105.302,78.4673 102.469,79.9673 100,82.5C 100,85.1667 100,87.8333 100,90.5C 97.8225,94.0655 95.1558,94.3988 92,91.5C 91.6667,88.8333 91.3333,86.1667 91,83.5C 89.0077,82.6719 87.5077,81.3386 86.5,79.5C 85.5,79.1667 84.8333,78.5 84.5,77.5C 85.3382,77.1583 85.6716,76.4916 85.5,75.5C 87.271,77.9353 89.6044,79.602 92.5,80.5C 93.0965,83.9412 93.7632,87.2746 94.5,90.5C 95.209,91.404 96.209,91.7373 97.5,91.5C 97.5,88.1667 97.5,84.8333 97.5,81.5C 101.471,79.214 103.804,75.8807 104.5,71.5C 106.163,69.5615 106.829,67.2282 106.5,64.5C 106.263,63.209 106.596,62.209 107.5,61.5 Z"/></g>
<g><path style="opacity:0.851" fill="#520911" d="M 118.5,82.5 C 118.89,85.7967 119.89,88.7967 121.5,91.5C 120.791,92.404 119.791,92.7373 118.5,92.5C 118.5,89.1667 118.5,85.8333 118.5,82.5 Z"/></g>
<g><path style="opacity:0.925" fill="#680c15" d="M 97.5,81.5 C 97.5,84.8333 97.5,88.1667 97.5,91.5C 96.209,91.7373 95.209,91.404 94.5,90.5C 96.11,87.7967 97.11,84.7967 97.5,81.5 Z"/></g>
<g><path style="opacity:0.561" fill="#39080b" d="M 92.5,80.5 C 94.4023,83.3373 95.069,86.6707 94.5,90.5C 93.7632,87.2746 93.0965,83.9412 92.5,80.5 Z"/></g>
<g><path style="opacity:0.682" fill="#380a0b" d="M 117.5,69.5 C 118.391,70.1098 119.391,70.4431 120.5,70.5C 121.209,71.404 122.209,71.7373 123.5,71.5C 122.399,72.5983 121.066,72.765 119.5,72C 118.244,71.5831 117.577,70.7498 117.5,69.5 Z"/></g>
<g><path style="opacity:0.096" fill="#120102" d="M 154.5,80.5 C 155.167,80.5 155.5,80.8333 155.5,81.5C 154.748,84.7473 154.248,88.0806 154,91.5C 152.492,95.674 150.159,96.3407 147,93.5C 146.752,90.0806 146.252,86.7473 145.5,83.5C 146.167,83.5 146.5,83.1667 146.5,82.5C 147.117,82.6107 147.617,82.944 148,83.5C 148.498,86.4816 148.665,89.4816 148.5,92.5C 149.5,92.5 150.5,92.5 151.5,92.5C 151.185,88.6286 151.518,84.9619 152.5,81.5C 152.842,80.6618 153.508,80.3284 154.5,80.5 Z"/></g>
<g><path style="opacity:0.725" fill="#500e12" d="M 226.5,81.5 C 226.5,85.8333 226.5,90.1667 226.5,94.5C 225.09,95.8284 223.924,95.4951 223,93.5C 222.501,89.8484 222.335,86.1817 222.5,82.5C 224.268,86.0442 225.102,90.0442 225,94.5C 225.175,89.9805 225.675,85.6472 226.5,81.5 Z"/></g>
<g><path style="opacity:0.616" fill="#3c0c0e" d="M 243.5,81.5 C 243.666,85.8461 243.499,90.1794 243,94.5C 241.667,95.8333 240.333,95.8333 239,94.5C 238.501,90.5138 238.334,86.5138 238.5,82.5C 239.117,82.6107 239.617,82.944 240,83.5C 240.333,87.1667 240.667,90.8333 241,94.5C 241.333,90.5 241.667,86.5 242,82.5C 242.383,81.944 242.883,81.6107 243.5,81.5 Z"/></g>
<g><path style="opacity:0.482" fill="#1b0204" d="M 32.5,89.5 C 30.8463,92.8594 31.8463,94.8594 35.5,95.5C 31.1503,96.9943 29.317,95.3276 30,90.5C 30.6708,89.7476 31.5041,89.4142 32.5,89.5 Z"/></g>
<g><path style="opacity:0.796" fill="#300709" d="M 212.5,98.5 C 212.042,101.309 210.709,101.976 208.5,100.5C 211.277,96.6714 212.777,92.3381 213,87.5C 215.067,91.2847 214.901,94.9513 212.5,98.5 Z"/></g>
<g><path style="opacity:0.494" fill="#110102" d="M 158.5,105.5 C 155.718,106.933 152.718,108.1 149.5,109C 154.897,108.821 160.23,107.988 165.5,106.5C 165.833,106.833 166.167,107.167 166.5,107.5C 164.023,108.88 164.023,109.88 166.5,110.5C 165.726,111.147 164.726,111.48 163.5,111.5C 161.624,111.151 160.124,110.484 159,109.5C 153.091,111.407 147.258,111.074 141.5,108.5C 145.382,107.197 149.382,106.53 153.5,106.5C 153.5,105.5 153.5,104.5 153.5,103.5C 151.891,103.906 150.557,103.906 149.5,103.5C 152.658,102.815 155.658,101.815 158.5,100.5C 160.453,101.156 162.453,101.489 164.5,101.5C 164.5,102.833 164.5,104.167 164.5,105.5C 162.5,105.5 160.5,105.5 158.5,105.5 Z M 158.5,105.5 C 160.158,104.819 161.825,103.985 163.5,103C 160.137,100.814 157.137,101.314 154.5,104.5C 155.689,105.429 157.022,105.762 158.5,105.5 Z"/></g>
<g><path style="opacity:0.308" fill="#150103" d="M 199.5,103.5 C 199.915,105.948 198.915,107.281 196.5,107.5C 190.243,107.251 183.909,107.251 177.5,107.5C 184.931,107.025 192.265,105.692 199.5,103.5 Z"/></g>
<g><path style="opacity:0.064" fill="#0b0001" d="M 141.5,108.5 C 137.51,107.688 133.51,107.855 129.5,109C 128.137,110.945 127.303,113.112 127,115.5C 125.556,117.155 123.722,117.822 121.5,117.5C 122.057,115.051 122.057,112.718 121.5,110.5C 118.601,111.642 115.601,112.308 112.5,112.5C 120.887,109.209 129.72,106.875 139,105.5C 140.749,105.748 141.582,106.748 141.5,108.5 Z"/></g>
<g><path style="opacity:0.859" fill="#220405" d="M 106.5,114.5 C 103.006,115.801 99.673,117.634 96.5,120C 94.5643,120.813 92.5643,121.313 90.5,121.5C 89.7611,121.631 89.0944,121.464 88.5,121C 91.4016,120.081 91.7349,119.248 89.5,118.5C 92.005,117.503 94.6717,117.503 97.5,118.5C 97.5,117.5 97.5,116.5 97.5,115.5C 100.482,115.037 103.482,114.704 106.5,114.5 Z"/></g>
<g><path style="opacity:0.058" fill="#0e0001" d="M 89.5,118.5 C 91.7349,119.248 91.4016,120.081 88.5,121C 89.0944,121.464 89.7611,121.631 90.5,121.5C 86.5078,123.233 82.3411,124.9 78,126.5C 77.6666,124.953 78.1666,123.62 79.5,122.5C 78.1667,122.167 76.8333,121.833 75.5,121.5C 71.7928,122.011 68.1262,122.678 64.5,123.5C 67.5035,121.738 70.8368,120.572 74.5,120C 79.496,119.389 84.496,118.889 89.5,118.5 Z"/></g>
<g><path style="opacity:0.307" fill="#160103" d="M 21.5,119.5 C 20.8112,120.707 20.6446,122.041 21,123.5C 18.7446,126.13 16.578,128.797 14.5,131.5C 15.7111,132.72 15.7111,133.887 14.5,135C 16.1341,135.494 17.8008,135.66 19.5,135.5C 17.7354,136.461 15.7354,136.795 13.5,136.5C 13.6427,134.738 13.3094,133.071 12.5,131.5C 15.9358,127.17 18.9358,123.17 21.5,119.5 Z"/></g>
<g><path style="opacity:0.671" fill="#1b0204" d="M 44.5,130.5 C 40.6836,131.482 36.6836,132.149 32.5,132.5C 32.9175,131.778 33.5842,131.278 34.5,131C 37.8168,130.502 41.1501,130.335 44.5,130.5 Z"/></g>
<g><path style="opacity:0.004" fill="#110102" d="M 32.5,132.5 C 30.0948,133.768 27.4282,134.435 24.5,134.5C 26.8383,132.96 29.5049,132.294 32.5,132.5 Z"/></g>
</svg>
